<svg width="72" height="54" viewBox="0 0 72 54" fill="none" xmlns="http://www.w3.org/2000/svg">
<path d="M69.0107 11.0742C68.9053 11.0742 68.7822 11.083 68.6416 11.1006C68.501 11.1182 68.3604 11.1445 68.2197 11.1797L65.1084 12.0762L61.8916 4.11328C61.4346 2.95312 60.6172 1.97754 59.4395 1.18652C58.2617 0.395508 57.0752 0 55.8799 0H25.7158C24.4854 0 23.2812 0.395508 22.1035 1.18652C20.9258 1.97754 20.1084 2.95312 19.6514 4.11328L16.4346 12.0234L13.376 11.1797C13.2354 11.1445 13.0947 11.1182 12.9541 11.1006C12.8135 11.083 12.6904 11.0742 12.585 11.0742C11.8467 11.0742 11.2402 11.3291 10.7656 11.8389C10.291 12.3486 10.0537 12.9902 10.0537 13.7637V15.6094C10.0537 15.6445 10.0537 15.6885 10.0537 15.7412C10.0537 15.7939 10.0537 15.8379 10.0537 15.873C9.4209 16.2598 8.80566 16.6992 8.20801 17.1914C7.61035 17.6836 7.03027 18.1934 6.46777 18.7207C4.53418 20.6895 3.05762 22.9307 2.03809 25.4443C1.01855 27.958 0.508789 30.5859 0.508789 33.3281C0.508789 36.1055 1.01855 38.751 2.03809 41.2646C3.05762 43.7783 4.53418 46.002 6.46777 47.9355C8.40137 49.9043 10.6074 51.4072 13.0859 52.4443C15.5645 53.4814 18.1572 54 20.8643 54C23.6064 54 26.2168 53.4814 28.6953 52.4443C31.1738 51.4072 33.3623 49.9043 35.2607 47.9355C36.3857 46.8105 37.3613 45.5801 38.1875 44.2441C39.0137 42.9082 39.6729 41.502 40.165 40.0254H59.1494V43.9805C59.1494 44.8945 59.4658 45.668 60.0986 46.3008C60.7314 46.9336 61.5049 47.25 62.4189 47.25H66.6904C67.6045 47.25 68.3779 46.9336 69.0107 46.3008C69.6436 45.668 69.96 44.8945 69.96 43.9805V28.1602C69.96 27 69.8105 25.6465 69.5117 24.0996C69.2129 22.5527 68.8525 21.2695 68.4307 20.25L67.9033 18.9316H68.2725C69.1865 18.9316 69.96 18.6064 70.5928 17.9561C71.2256 17.3057 71.542 16.5234 71.542 15.6094V13.7637C71.542 12.9902 71.3047 12.3486 70.8301 11.8389C70.3555 11.3291 69.749 11.0742 69.0107 11.0742ZM30.9893 43.5586C29.6182 44.9297 28.0713 45.9844 26.3486 46.7227C24.626 47.4609 22.7979 47.8301 20.8643 47.8301C18.9658 47.8301 17.1465 47.4609 15.4062 46.7227C13.666 45.9844 12.1279 44.9297 10.792 43.5586C9.45605 42.2227 8.42773 40.667 7.70703 38.8916C6.98633 37.1162 6.62598 35.2617 6.62598 33.3281C6.62598 31.3945 6.98633 29.5488 7.70703 27.791C8.42773 26.0332 9.45605 24.4688 10.792 23.0977C12.1279 21.7266 13.666 20.6807 15.4062 19.96C17.1465 19.2393 18.9658 18.8789 20.8643 18.8789C22.7979 18.8789 24.626 19.2393 26.3486 19.96C28.0713 20.6807 29.6182 21.7266 30.9893 23.0977C32.3252 24.4688 33.3535 26.0332 34.0742 27.791C34.7949 29.5488 35.1553 31.3945 35.1553 33.3281C35.1553 35.2617 34.7949 37.1162 34.0742 38.8916C33.3535 40.667 32.3252 42.2227 30.9893 43.5586ZM36.0518 19.6172C35.9463 19.4414 35.8232 19.2832 35.6826 19.1426C35.542 19.002 35.4014 18.8613 35.2607 18.7207C33.3623 16.7871 31.1738 15.3018 28.6953 14.2646C26.2168 13.2275 23.6064 12.709 20.8643 12.709C20.8291 12.709 20.7852 12.709 20.7324 12.709C20.6797 12.709 20.6357 12.709 20.6006 12.709L23.6592 5.11523C23.9404 4.44727 24.4326 3.86719 25.1357 3.375C25.8389 2.88281 26.5596 2.63672 27.2979 2.63672H54.2451C54.9834 2.63672 55.7041 2.88281 56.4072 3.375C57.1104 3.86719 57.6025 4.44727 57.8838 5.11523L62.7354 17.1387C63.0166 17.8066 62.999 18.3867 62.6826 18.8789C62.3662 19.3711 61.8564 19.6172 61.1533 19.6172H36.0518ZM63.6846 32.3789C63.6846 32.7305 63.5527 33.0381 63.2891 33.3018C63.0254 33.5654 62.7178 33.6973 62.3662 33.6973H53.085C52.7334 33.6973 52.4258 33.5654 52.1621 33.3018C51.8984 33.0381 51.7666 32.7305 51.7666 32.3789V27.8438C51.7666 27.4922 51.8984 27.1846 52.1621 26.9209C52.4258 26.6572 52.7334 26.5254 53.085 26.5254H62.3662C62.7178 26.5254 63.0254 26.6572 63.2891 26.9209C63.5527 27.1846 63.6846 27.4922 63.6846 27.8438V32.3789ZM24.6084 32.6953C24.2568 32.5195 23.835 32.335 23.3428 32.1416C22.8506 31.9482 22.2881 31.7461 21.6553 31.5352C21.0928 31.3242 20.6357 31.1396 20.2842 30.9814C19.9326 30.8232 19.6689 30.6738 19.4932 30.5332C19.3174 30.4277 19.1855 30.2783 19.0977 30.085C19.0098 29.8916 18.9658 29.6719 18.9658 29.4258C18.9658 29.1797 19.0098 28.96 19.0977 28.7666C19.1855 28.5732 19.3174 28.3887 19.4932 28.2129C19.6689 28.0371 19.8799 27.9141 20.126 27.8438C20.3721 27.7734 20.6357 27.7383 20.917 27.7383C21.5146 27.7383 22.0244 27.9229 22.4463 28.292C22.8682 28.6611 23.2197 29.2148 23.501 29.9531L26.3486 28.8984C26.0322 27.8086 25.4961 26.9561 24.7402 26.3408C23.9844 25.7256 23.0264 25.3477 21.8662 25.207V23.4141H19.7568V25.207C18.9834 25.3125 18.3154 25.5059 17.7529 25.7871C17.1904 26.0684 16.7334 26.4199 16.3818 26.8418C16.0303 27.2988 15.7666 27.7822 15.5908 28.292C15.415 28.8018 15.3271 29.3379 15.3271 29.9004C15.3271 30.3574 15.3799 30.7705 15.4854 31.1396C15.5908 31.5088 15.7314 31.8516 15.9072 32.168C16.1182 32.4844 16.3555 32.7744 16.6191 33.0381C16.8828 33.3018 17.1729 33.5215 17.4893 33.6973C17.8057 33.873 18.1924 34.0488 18.6494 34.2246C19.1064 34.4004 19.6162 34.5938 20.1787 34.8047C20.8115 35.0156 21.3301 35.2002 21.7344 35.3584C22.1387 35.5166 22.4287 35.666 22.6045 35.8066C22.8154 35.9473 22.9648 36.1143 23.0527 36.3076C23.1406 36.501 23.1846 36.7383 23.1846 37.0195C23.1846 37.2656 23.1406 37.5029 23.0527 37.7314C22.9648 37.96 22.8154 38.1621 22.6045 38.3379C22.4287 38.5137 22.2002 38.6455 21.9189 38.7334C21.6377 38.8213 21.3037 38.8652 20.917 38.8652C20.0732 38.8652 19.4053 38.6543 18.9131 38.2324C18.4209 37.8105 18.1045 37.1777 17.9639 36.334L14.7471 37.125C15.0635 38.4609 15.6436 39.498 16.4873 40.2363C17.3311 40.9746 18.4209 41.3965 19.7568 41.502V43.8223H21.8662V41.502C22.6748 41.4316 23.3867 41.2646 24.002 41.001C24.6172 40.7373 25.1533 40.377 25.6104 39.9199C26.0322 39.4629 26.3486 38.9531 26.5596 38.3906C26.7705 37.8281 26.876 37.2129 26.876 36.5449C26.876 36.123 26.8232 35.7188 26.7178 35.332C26.6123 34.9453 26.4541 34.5762 26.2432 34.2246C26.0322 33.9082 25.7949 33.627 25.5312 33.3809C25.2676 33.1348 24.96 32.9062 24.6084 32.6953Z" fill="#232628"/>
</svg>
