<svg width="56" height="48" viewBox="0 0 56 48" fill="none" xmlns="http://www.w3.org/2000/svg">
<mask id="path-1-inside-1_10_443" fill="white">
<path d="M0.5 0.330078L55.5002 23.6763V47.6763L0.5 24.3301V0.330078Z"/>
</mask>
<g clip-path="url(#paint0_diamond_10_443_clip_path)" data-figma-skip-parse="true" mask="url(#path-1-inside-1_10_443)"><g transform="matrix(0.0506278 0.0214902 0 0.012 55.5002 35.6763)"><rect x="0" y="0" width="1304.55" height="2000" fill="url(#paint0_diamond_10_443)" opacity="1" shape-rendering="crispEdges"/><rect x="0" y="0" width="1304.55" height="2000" transform="scale(1 -1)" fill="url(#paint0_diamond_10_443)" opacity="1" shape-rendering="crispEdges"/><rect x="0" y="0" width="1304.55" height="2000" transform="scale(-1 1)" fill="url(#paint0_diamond_10_443)" opacity="1" shape-rendering="crispEdges"/><rect x="0" y="0" width="1304.55" height="2000" transform="scale(-1)" fill="url(#paint0_diamond_10_443)" opacity="1" shape-rendering="crispEdges"/></g></g><path d="M55.5002 23.6763L106.128 45.1665V33.1665L55.5002 11.6763V23.6763ZM55.5002 47.6763V59.6763L106.128 81.1665V69.1665L55.5002 47.6763ZM0.5 12.3301L55.5002 35.6763V11.6763L0.5 -11.6699V12.3301ZM4.8724 2.18605V26.1861L106.128 69.1665V45.1665L4.8724 2.18605ZM55.5002 35.6763L0.5 12.3301V36.3301L55.5002 59.6763V35.6763Z" data-figma-gradient-fill="{&#34;type&#34;:&#34;GRADIENT_DIAMOND&#34;,&#34;stops&#34;:[{&#34;color&#34;:{&#34;r&#34;:0.90980392694473267,&#34;g&#34;:0.66666668653488159,&#34;b&#34;:0.21568627655506134,&#34;a&#34;:1.0},&#34;position&#34;:0.99999988079071045},{&#34;color&#34;:{&#34;r&#34;:0.0,&#34;g&#34;:0.0,&#34;b&#34;:0.0,&#34;a&#34;:0.0},&#34;position&#34;:1.0}],&#34;stopsVar&#34;:[{&#34;color&#34;:{&#34;r&#34;:0.90980392694473267,&#34;g&#34;:0.66666668653488159,&#34;b&#34;:0.21568627655506134,&#34;a&#34;:1.0},&#34;position&#34;:0.99999988079071045},{&#34;color&#34;:{&#34;r&#34;:0.0,&#34;g&#34;:0.0,&#34;b&#34;:0.0,&#34;a&#34;:0.0},&#34;position&#34;:1.0}],&#34;transform&#34;:{&#34;m00&#34;:101.25552368164062,&#34;m01&#34;:0.0,&#34;m02&#34;:4.8723978996276855,&#34;m10&#34;:42.980438232421875,&#34;m11&#34;:24.0,&#34;m12&#34;:2.1860516071319580},&#34;opacity&#34;:1.0,&#34;blendMode&#34;:&#34;NORMAL&#34;,&#34;visible&#34;:true}" mask="url(#path-1-inside-1_10_443)"/>
<defs>
<clipPath id="paint0_diamond_10_443_clip_path"><path d="M55.5002 23.6763L106.128 45.1665V33.1665L55.5002 11.6763V23.6763ZM55.5002 47.6763V59.6763L106.128 81.1665V69.1665L55.5002 47.6763ZM0.5 12.3301L55.5002 35.6763V11.6763L0.5 -11.6699V12.3301ZM4.8724 2.18605V26.1861L106.128 69.1665V45.1665L4.8724 2.18605ZM55.5002 35.6763L0.5 12.3301V36.3301L55.5002 59.6763V35.6763Z" mask="url(#path-1-inside-1_10_443)"/></clipPath><linearGradient id="paint0_diamond_10_443" x1="0" y1="0" x2="500" y2="500" gradientUnits="userSpaceOnUse">
<stop offset="1" stop-color="#E8AA37"/>
<stop offset="1" stop-opacity="0"/>
</linearGradient>
</defs>
</svg>
