<svg width="14" height="13" viewBox="0 0 14 13" fill="none" xmlns="http://www.w3.org/2000/svg">
<path d="M7.19922 0C6.30208 0 5.45996 0.173503 4.67285 0.520508C3.88574 0.85905 3.19808 1.32243 2.60986 1.91064C2.02165 2.49886 1.55827 3.18652 1.21973 3.97363C0.872721 4.76074 0.699219 5.60286 0.699219 6.5C0.699219 7.39714 0.872721 8.23926 1.21973 9.02637C1.55827 9.81348 2.02165 10.5011 2.60986 11.0894C3.19808 11.6776 3.88574 12.141 4.67285 12.4795C5.45996 12.8265 6.30208 13 7.19922 13C8.09635 13 8.93848 12.8265 9.72559 12.4795C10.5127 12.141 11.2004 11.6776 11.7886 11.0894C12.3768 10.5011 12.8402 9.81348 13.1787 9.02637C13.5257 8.23926 13.6992 7.39714 13.6992 6.5C13.6992 5.60286 13.5257 4.76074 13.1787 3.97363C12.8402 3.18652 12.3768 2.49886 11.7886 1.91064C11.2004 1.32243 10.5127 0.85905 9.72559 0.520508C8.93848 0.173503 8.09635 0 7.19922 0ZM10.6396 8.70898C10.6396 8.83594 10.5952 8.94596 10.5063 9.03906C10.4175 9.13216 10.3096 9.17871 10.1826 9.17871C10.0641 9.17871 9.96045 9.13216 9.87158 9.03906C9.78271 8.94596 9.73828 8.83594 9.73828 8.70898V7.00781H8.39258V8.70898C8.39258 8.83594 8.34814 8.94596 8.25928 9.03906C8.17041 9.13216 8.0625 9.17871 7.93555 9.17871C7.81706 9.17871 7.71338 9.13216 7.62451 9.03906C7.53564 8.94596 7.49121 8.83594 7.49121 8.70898V7.00781H6.14551V8.70898C6.14551 8.83594 6.10107 8.94596 6.01221 9.03906C5.92334 9.13216 5.81543 9.17871 5.68848 9.17871C5.56999 9.17871 5.46631 9.13216 5.37744 9.03906C5.28857 8.94596 5.24414 8.83594 5.24414 8.70898V7.00781H3.51758C3.39062 7.00781 3.27214 6.95492 3.16211 6.84912C3.05208 6.74333 2.99707 6.57617 2.99707 6.34766V4.29102C2.99707 4.16406 3.0415 4.05404 3.13037 3.96094C3.21924 3.86784 3.32292 3.82129 3.44141 3.82129C3.56836 3.82129 3.67627 3.86784 3.76514 3.96094C3.854 4.05404 3.89844 4.16406 3.89844 4.29102V6.06836H5.24414V4.29102C5.24414 4.16406 5.28857 4.05404 5.37744 3.96094C5.46631 3.86784 5.56999 3.82129 5.68848 3.82129C5.81543 3.82129 5.92334 3.86784 6.01221 3.96094C6.10107 4.05404 6.14551 4.16406 6.14551 4.29102V6.06836H7.49121V4.29102C7.49121 4.16406 7.53564 4.05404 7.62451 3.96094C7.71338 3.86784 7.81706 3.82129 7.93555 3.82129C8.0625 3.82129 8.17041 3.86784 8.25928 3.96094C8.34814 4.05404 8.39258 4.16406 8.39258 4.29102V6.06836H9.73828V4.29102C9.73828 4.16406 9.78271 4.05404 9.87158 3.96094C9.96045 3.86784 10.0641 3.82129 10.1826 3.82129C10.3096 3.82129 10.4175 3.86784 10.5063 3.96094C10.5952 4.05404 10.6396 4.16406 10.6396 4.29102V8.70898Z" fill="#AAAAAA"/>
</svg>
