<svg width="75" height="54" viewBox="0 0 75 54" fill="none" xmlns="http://www.w3.org/2000/svg">
<path d="M72.0146 10.4941C71.9092 10.4941 71.7861 10.5029 71.6455 10.5205C71.5049 10.5381 71.3643 10.5645 71.2236 10.5996L68.2705 11.4434L65.1592 3.90234C64.7021 2.8125 63.9023 1.88965 62.7598 1.13379C61.6172 0.37793 60.4658 0 59.3057 0H30.1963C29.0361 0 27.8848 0.37793 26.7422 1.13379C25.5996 1.88965 24.8174 2.8125 24.3955 3.90234L21.2842 11.3906L18.3311 10.5996C18.1904 10.5645 18.0498 10.5381 17.9092 10.5205C17.7686 10.5029 17.6455 10.4941 17.54 10.4941C16.8018 10.4941 16.2041 10.7314 15.7471 11.2061C15.29 11.6807 15.0615 12.3047 15.0615 13.0781V14.8184C15.0615 14.8535 15.0615 14.8887 15.0615 14.9238C15.0615 14.959 15.0791 14.9941 15.1143 15.0293C14.7627 15.2754 14.4199 15.5391 14.0859 15.8203C13.752 16.1016 13.4268 16.4004 13.1104 16.7168C11.458 18.3691 10.1924 20.2588 9.31348 22.3857C8.43457 24.5127 7.99512 26.7363 7.99512 29.0566C7.99512 30.9551 8.28516 32.792 8.86523 34.5674C9.44531 36.3428 10.2979 37.9688 11.4229 39.4453L1.29785 49.5176C0.770508 50.0449 0.506836 50.6689 0.506836 51.3896C0.506836 52.1104 0.770508 52.7168 1.29785 53.209C1.54395 53.4902 1.8252 53.6924 2.1416 53.8154C2.45801 53.9385 2.79199 54 3.14355 54C3.45996 54 3.78516 53.9385 4.11914 53.8154C4.45312 53.6924 4.74316 53.4902 4.98926 53.209L15.1143 43.1367C16.626 44.2617 18.2695 45.1143 20.0449 45.6943C21.8203 46.2744 23.6572 46.5645 25.5557 46.5645C27.9111 46.5645 30.1523 46.125 32.2793 45.2461C34.4062 44.3672 36.2959 43.1016 37.9482 41.4492C38.4756 40.9219 38.9678 40.3594 39.4248 39.7617C39.8818 39.1641 40.3037 38.5488 40.6904 37.916H62.4697V41.6602C62.4697 42.5391 62.7861 43.2861 63.4189 43.9014C64.0518 44.5166 64.79 44.8242 65.6338 44.8242H69.7471C70.626 44.8242 71.373 44.5166 71.9883 43.9014C72.6035 43.2861 72.9111 42.5391 72.9111 41.6602V26.6836C72.9111 25.5938 72.7705 24.3193 72.4893 22.8604C72.208 21.4014 71.8564 20.1797 71.4346 19.1953L70.96 17.9824H71.3291C72.208 17.9824 72.9551 17.6748 73.5703 17.0596C74.1855 16.4443 74.4932 15.6973 74.4932 14.8184V13.0781C74.4932 12.3047 74.2646 11.6807 73.8076 11.2061C73.3506 10.7314 72.7529 10.4941 72.0146 10.4941ZM34.2568 37.7578C33.0967 38.8828 31.7695 39.7617 30.2754 40.3945C28.7812 41.0273 27.208 41.3438 25.5557 41.3438C23.9033 41.3438 22.3301 41.0273 20.8359 40.3945C19.3418 39.7617 18.0146 38.8828 16.8545 37.7578C15.6943 36.5977 14.8066 35.2705 14.1914 33.7764C13.5762 32.2822 13.2686 30.709 13.2686 29.0566C13.2686 27.4395 13.5762 25.8838 14.1914 24.3896C14.8066 22.8955 15.6943 21.5684 16.8545 20.4082C18.0146 19.248 19.3418 18.3604 20.8359 17.7451C22.3301 17.1299 23.9033 16.8223 25.5557 16.8223C27.208 16.8223 28.7812 17.1299 30.2754 17.7451C31.7695 18.3604 33.0967 19.248 34.2568 20.4082C35.417 21.5684 36.3047 22.8955 36.9199 24.3896C37.5352 25.8838 37.8428 27.4395 37.8428 29.0566C37.8428 30.709 37.5352 32.2822 36.9199 33.7764C36.3047 35.2705 35.417 36.5977 34.2568 37.7578ZM39.583 18.5625C39.3369 18.2461 39.082 17.9297 38.8184 17.6133C38.5547 17.2969 38.2646 16.998 37.9482 16.7168C36.2959 15.0645 34.4062 13.7988 32.2793 12.9199C30.1523 12.041 27.9111 11.6016 25.5557 11.6016C25.5205 11.6016 25.4941 11.6016 25.4766 11.6016C25.459 11.6016 25.4502 11.6016 25.4502 11.6016L28.2451 4.85156C28.4912 4.18359 28.957 3.62988 29.6426 3.19043C30.3281 2.75098 31.0225 2.53125 31.7256 2.53125H57.7764C58.4795 2.53125 59.1738 2.75098 59.8594 3.19043C60.5449 3.62988 61.0107 4.18359 61.2568 4.85156L66.0029 16.2422C66.249 16.875 66.2227 17.4199 65.9238 17.877C65.625 18.334 65.124 18.5625 64.4209 18.5625H39.583ZM66.8467 30.6914C66.8467 31.043 66.7236 31.3418 66.4775 31.5879C66.2314 31.834 65.9326 31.957 65.5811 31.957H56.6689C56.3174 31.957 56.0186 31.834 55.7725 31.5879C55.5264 31.3418 55.4033 31.043 55.4033 30.6914V26.4199C55.4033 26.0684 55.5264 25.7695 55.7725 25.5234C56.0186 25.2773 56.3174 25.1543 56.6689 25.1543H65.5811C65.9326 25.1543 66.2314 25.2773 66.4775 25.5234C66.7236 25.7695 66.8467 26.0684 66.8467 26.4199V30.6914Z" fill="#232628"/>
</svg>
