<svg width="24" height="18" viewBox="0 0 24 18" fill="none" xmlns="http://www.w3.org/2000/svg">
<path d="M23.3062 5.39941C23.2463 5.33952 23.1789 5.28711 23.104 5.24219C23.0291 5.19727 22.9468 5.1748 22.8569 5.1748H20.6108C20.3263 4.42611 20.0081 3.72233 19.6562 3.06348C19.3044 2.40462 18.9263 1.93294 18.522 1.64844C17.8182 1.16927 16.8673 0.809896 15.6694 0.570312C14.4715 0.330729 13.2249 0.210938 11.9297 0.210938C10.6344 0.210938 9.38786 0.330729 8.18994 0.570312C7.007 0.809896 6.05615 1.16927 5.3374 1.64844C4.93311 1.93294 4.55501 2.40462 4.20312 3.06348C3.85124 3.72233 3.53304 4.42611 3.24854 5.1748H1.0249C0.935059 5.1748 0.848958 5.19727 0.766602 5.24219C0.684245 5.28711 0.613118 5.33952 0.553223 5.39941C0.493327 5.47428 0.455892 5.55664 0.440918 5.64648C0.425944 5.73633 0.425944 5.82617 0.440918 5.91602L0.777832 7.57812C0.80778 7.71289 0.875163 7.8252 0.97998 7.91504C1.0848 8.00488 1.20459 8.0498 1.33936 8.0498H2.01318C1.68376 8.43913 1.44043 8.86589 1.2832 9.33008C1.12598 9.79427 1.04736 10.266 1.04736 10.7451C1.04736 11.3291 1.15218 11.8794 1.36182 12.396C1.57145 12.9126 1.87842 13.3656 2.28271 13.7549C2.28271 13.7549 2.28646 13.7549 2.29395 13.7549C2.30143 13.7549 2.30518 13.7624 2.30518 13.7773V16.0908C2.30518 16.3454 2.39128 16.5625 2.56348 16.7422C2.73568 16.9219 2.94906 17.0117 3.20361 17.0117H5.27002C5.5096 17.0117 5.71549 16.9219 5.8877 16.7422C6.0599 16.5625 6.146 16.3454 6.146 16.0908V15.1475H17.7134V16.0908C17.7134 16.3454 17.7995 16.5625 17.9717 16.7422C18.1439 16.9219 18.3573 17.0117 18.6118 17.0117H20.6782C20.9178 17.0117 21.1237 16.9219 21.2959 16.7422C21.4681 16.5625 21.5542 16.3454 21.5542 16.0908V13.8223C21.9735 13.418 22.2879 12.9538 22.4976 12.4297C22.7072 11.9056 22.812 11.3665 22.812 10.8125C22.812 10.3184 22.7297 9.83171 22.5649 9.35254C22.4002 8.87337 22.1457 8.43913 21.8013 8.0498H22.52C22.6548 8.0498 22.7783 8.00488 22.8906 7.91504C23.0029 7.8252 23.0741 7.71289 23.104 7.57812L23.4185 5.91602C23.4484 5.82617 23.4521 5.73633 23.4297 5.64648C23.4072 5.55664 23.366 5.47428 23.3062 5.39941ZM6.32568 3.17578C6.87972 2.78646 7.67334 2.50195 8.70654 2.32227C9.73975 2.1276 10.8179 2.03027 11.9409 2.03027C13.064 2.03027 14.1346 2.1276 15.1528 2.32227C16.186 2.50195 16.9871 2.78646 17.5562 3.17578C17.7658 3.32552 18.0054 3.67367 18.2749 4.22021C18.5444 4.76676 18.8065 5.4069 19.061 6.14062H4.79834C5.0529 5.4069 5.31494 4.76676 5.58447 4.22021C5.854 3.67367 6.10107 3.32552 6.32568 3.17578ZM5.40479 12.7666C4.92562 12.7666 4.51758 12.5907 4.18066 12.2388C3.84375 11.8869 3.67529 11.4639 3.67529 10.9697C3.67529 10.4756 3.84375 10.0526 4.18066 9.70068C4.51758 9.3488 4.92562 9.17285 5.40479 9.17285C5.88395 9.17285 6.29574 9.3488 6.64014 9.70068C6.98454 10.0526 7.15674 10.4756 7.15674 10.9697C7.15674 11.4639 6.98454 11.8869 6.64014 12.2388C6.29574 12.5907 5.88395 12.7666 5.40479 12.7666ZM18.4771 12.7666C17.9979 12.7666 17.5861 12.5907 17.2417 12.2388C16.8973 11.8869 16.7251 11.4639 16.7251 10.9697C16.7251 10.4756 16.8973 10.0526 17.2417 9.70068C17.5861 9.3488 17.9979 9.17285 18.4771 9.17285C18.9562 9.17285 19.3643 9.3488 19.7012 9.70068C20.0381 10.0526 20.2065 10.4756 20.2065 10.9697C20.2065 11.4639 20.0381 11.8869 19.7012 12.2388C19.3643 12.5907 18.9562 12.7666 18.4771 12.7666Z" fill="#AAAAAA"/>
</svg>
