<svg width="23" height="26" viewBox="0 0 23 26" fill="none" xmlns="http://www.w3.org/2000/svg">
<g clip-path="url(#clip0_10_510)">
<path d="M20.9298 7.42786C20.9141 7.24027 20.8321 7.08005 20.6835 6.94718C20.535 6.8143 20.3592 6.74787 20.156 6.74787H16.2636V5.2472C16.2636 4.62193 16.1386 4.03573 15.8885 3.48861C15.654 2.94149 15.3218 2.46472 14.8919 2.05829C14.462 1.65186 13.9657 1.3314 13.403 1.09692C12.8402 0.862444 12.2306 0.745205 11.574 0.745205C10.9331 0.745205 10.3313 0.862444 9.76855 1.09692C9.2058 1.3314 8.70949 1.65186 8.27961 2.05829C7.84973 2.46472 7.51755 2.94149 7.28307 3.48861C7.03296 4.03573 6.9079 4.62193 6.9079 5.2472V6.74787H3.01555C2.81234 6.74787 2.63648 6.8143 2.48797 6.94718C2.33947 7.08005 2.2574 7.24027 2.24177 7.42786L0.670762 23.9352C0.65513 24.0446 0.666854 24.1501 0.705934 24.2517C0.745014 24.3533 0.803633 24.4432 0.881793 24.5214C0.944321 24.5995 1.02639 24.6582 1.128 24.6972C1.2296 24.7363 1.33512 24.7559 1.44454 24.7559H21.727C21.8364 24.7559 21.938 24.7363 22.0318 24.6972C22.1256 24.6582 22.2116 24.5995 22.2897 24.5214C22.3679 24.4432 22.4226 24.3533 22.4539 24.2517C22.4851 24.1501 22.5008 24.0446 22.5008 23.9352L20.9298 7.42786ZM8.45547 5.2472C8.45547 4.41871 8.76029 3.71136 9.36993 3.12517C9.97958 2.53897 10.7143 2.24587 11.574 2.24587C12.4338 2.24587 13.1685 2.53897 13.7781 3.12517C14.3878 3.71136 14.6926 4.41871 14.6926 5.2472V6.74787H8.45547V5.2472ZM2.31212 23.2552L3.71899 8.24854H6.9079V9.96023C6.67343 10.0853 6.48584 10.2611 6.34516 10.4878C6.20447 10.7145 6.13412 10.9685 6.13412 11.2499C6.13412 11.6563 6.28654 12.008 6.59136 12.305C6.89618 12.602 7.25962 12.7505 7.68169 12.7505C8.11938 12.7505 8.49064 12.602 8.79546 12.305C9.10028 12.008 9.2527 11.6563 9.2527 11.2499C9.2527 10.9685 9.17844 10.7145 9.02994 10.4878C8.88144 10.2611 8.68995 10.0853 8.45547 9.96023V8.24854H14.6926V9.96023C14.4738 10.0853 14.2901 10.2611 14.1416 10.4878C13.9931 10.7145 13.9188 10.9685 13.9188 11.2499C13.9188 11.6563 14.0712 12.008 14.3761 12.305C14.6809 12.602 15.0521 12.7505 15.4898 12.7505C15.9119 12.7505 16.2753 12.602 16.5802 12.305C16.885 12.008 17.0374 11.6563 17.0374 11.2499C17.0374 10.9685 16.9671 10.7145 16.8264 10.4878C16.6857 10.2611 16.4981 10.0853 16.2636 9.96023V8.24854H19.4525L20.8594 23.2552H2.31212Z" fill="#232628"/>
</g>
<defs>
<clipPath id="clip0_10_510">
<rect width="21.83" height="25" fill="white" transform="matrix(1 0 0 -1 0.670898 25.25)"/>
</clipPath>
</defs>
</svg>
