<svg width="13" height="13" viewBox="0 0 13 13" fill="none" xmlns="http://www.w3.org/2000/svg">
<path d="M12.2383 0.0761719C12.1367 0.00846386 12.0225 -0.0148115 11.8955 0.00634766C11.7686 0.0275068 11.6712 0.0930986 11.6035 0.203125L10.5752 1.70117C10.5752 1.70117 10.5731 1.70329 10.5688 1.70752C10.5646 1.71175 10.5625 1.71387 10.5625 1.71387L10.2197 2.23438C10.1012 2.42057 10.0103 2.61947 9.94678 2.83105C9.8833 3.04264 9.85156 3.25846 9.85156 3.47852L9.82617 10.0293C9.82617 10.0885 9.80713 10.1372 9.76904 10.1753C9.73096 10.2134 9.68652 10.2324 9.63574 10.2324H9.62305C9.58919 10.2324 9.55957 10.224 9.53418 10.207C9.50879 10.1901 9.49186 10.1774 9.4834 10.1689C9.47493 10.1605 9.46436 10.1436 9.45166 10.1182C9.43896 10.0928 9.43262 10.0632 9.43262 10.0293L9.44531 6.29688C9.44531 5.92448 9.31624 5.60498 9.05811 5.33838C8.79997 5.07178 8.4847 4.93001 8.1123 4.91309L8.125 2.24707C8.125 2.08626 8.09326 1.9318 8.02979 1.78369C7.96631 1.63558 7.87533 1.50228 7.75684 1.38379C7.64681 1.2653 7.51562 1.17432 7.36328 1.11084C7.21094 1.04736 7.05436 1.01562 6.89355 1.01562L1.80273 1.00293C1.46419 1.00293 1.17643 1.12354 0.939453 1.36475C0.702474 1.60596 0.583984 1.89583 0.583984 2.23438L0.558594 11.2734C0.558594 11.4935 0.624186 11.6839 0.755371 11.8447C0.886556 12.0055 1.05371 12.1113 1.25684 12.1621V12.5176C1.25684 12.6445 1.30127 12.7546 1.39014 12.8477C1.479 12.9408 1.58691 12.9873 1.71387 12.9873L6.91895 13C6.98665 13 7.04801 12.9873 7.10303 12.9619C7.15804 12.9365 7.20671 12.9027 7.24902 12.8604C7.29134 12.818 7.3252 12.7694 7.35059 12.7144C7.37598 12.6593 7.38867 12.598 7.38867 12.5303V12.1748C7.5918 12.1325 7.75895 12.0288 7.89014 11.8638C8.02132 11.6987 8.09115 11.5104 8.09961 11.2988L8.1123 5.85254C8.16309 5.85254 8.21175 5.86523 8.2583 5.89062C8.30485 5.91602 8.34505 5.94564 8.37891 5.97949C8.42122 6.02181 8.45296 6.07048 8.47412 6.12549C8.49528 6.1805 8.50586 6.23763 8.50586 6.29688V10.0293C8.4974 10.1816 8.52279 10.3255 8.58203 10.4609C8.64128 10.5964 8.72168 10.7191 8.82324 10.8291C8.93327 10.9307 9.05599 11.0111 9.19141 11.0703C9.32682 11.1296 9.4707 11.1592 9.62305 11.1592H9.63574C9.94889 11.1592 10.2155 11.0492 10.4355 10.8291C10.6556 10.609 10.7656 10.3467 10.7656 10.042L10.7783 3.47852C10.7783 3.42773 10.7826 3.37484 10.791 3.31982C10.7995 3.26481 10.8079 3.21191 10.8164 3.16113C10.8926 3.20345 10.9751 3.23942 11.064 3.26904C11.1528 3.29867 11.248 3.31348 11.3496 3.31348C11.612 3.31348 11.8405 3.21826 12.0352 3.02783C12.2298 2.8374 12.3271 2.60677 12.3271 2.33594C12.3271 2.20898 12.3018 2.08626 12.251 1.96777C12.2002 1.84928 12.1283 1.74349 12.0352 1.65039C12.0098 1.61654 11.9801 1.58691 11.9463 1.56152C11.9124 1.53613 11.8786 1.51497 11.8447 1.49805L12.3652 0.723633C12.4414 0.62207 12.4668 0.507812 12.4414 0.380859C12.416 0.253906 12.3483 0.152344 12.2383 0.0761719ZM6.42383 2.7168V4.69727L2.28516 4.68457L2.29785 2.7041L6.42383 2.7168ZM11.8574 2.33594C11.8574 2.47982 11.8066 2.60042 11.7051 2.69775C11.6035 2.79508 11.485 2.84375 11.3496 2.84375C11.2057 2.84375 11.0851 2.79508 10.9878 2.69775C10.8905 2.60042 10.8418 2.47982 10.8418 2.33594C10.8418 2.19206 10.8905 2.07145 10.9878 1.97412C11.0851 1.87679 11.2057 1.82812 11.3496 1.82812C11.485 1.82812 11.6035 1.87679 11.7051 1.97412C11.8066 2.07145 11.8574 2.19206 11.8574 2.33594Z" fill="#AAAAAA"/>
</svg>
