<svg width="396" height="396" viewBox="0 0 396 396" fill="none" xmlns="http://www.w3.org/2000/svg">
<rect opacity="0.25" x="0.34375" y="0.5" width="395" height="395" rx="197.5" fill="#CC6119" fill-opacity="0.9"/>
<rect opacity="0.85" x="18.3438" y="18.5" width="359" height="359" rx="179.5" fill="#CC6119" fill-opacity="0.9"/>
<path d="M96.4687 81.25H100.469V98.75H97.1438L88.4188 88.125V98.75H84.4188V81.25H87.7688L96.4687 91.875V81.25ZM108.634 95.5H118.159V98.75H104.609V81.25H117.834V84.5H108.634V88.3H116.759V91.45H108.634V95.5ZM143.713 81.25H147.588L141.863 98.75H137.513L133.663 86.9L129.688 98.75H125.363L119.613 81.25H123.813L127.763 93.55L131.888 81.25H135.638L139.638 93.65L143.713 81.25ZM161.745 95.45H169.27V98.75H156.045V96.125L162.795 89.75C164.345 88.275 164.62 87.375 164.62 86.525C164.62 85.15 163.67 84.35 161.82 84.35C160.32 84.35 159.045 84.925 158.195 86.1L155.245 84.2C156.595 82.225 159.045 80.95 162.195 80.95C166.095 80.95 168.695 82.95 168.695 86.125C168.695 87.825 168.22 89.375 165.77 91.65L161.745 95.45ZM178.392 99.05C174.092 99.05 170.892 95.775 170.892 90C170.892 84.225 174.092 80.95 178.392 80.95C182.717 80.95 185.892 84.225 185.892 90C185.892 95.775 182.717 99.05 178.392 99.05ZM178.392 95.625C180.417 95.625 181.817 93.975 181.817 90C181.817 86.025 180.417 84.375 178.392 84.375C176.392 84.375 174.992 86.025 174.992 90C174.992 93.975 176.392 95.625 178.392 95.625ZM193.263 95.45H200.788V98.75H187.563V96.125L194.313 89.75C195.863 88.275 196.138 87.375 196.138 86.525C196.138 85.15 195.188 84.35 193.338 84.35C191.838 84.35 190.563 84.925 189.713 86.1L186.763 84.2C188.113 82.225 190.563 80.95 193.713 80.95C197.613 80.95 200.213 82.95 200.213 86.125C200.213 87.825 199.738 89.375 197.288 91.65L193.263 95.45ZM210.634 88.375C213.784 88.875 215.384 90.825 215.384 93.4C215.384 96.35 213.109 99.05 208.134 99.05C205.684 99.05 203.159 98.375 201.459 97.175L203.034 94.075C204.359 95.075 206.209 95.65 208.034 95.65C210.059 95.65 211.309 94.825 211.309 93.4C211.309 92.075 210.334 91.25 208.034 91.25H206.184V88.575L209.784 84.5H202.334V81.25H214.584V83.875L210.634 88.375Z" fill="#FFF7F7"/>
<path d="M97.6438 111.5H88.4688V116.125H96.5688V119.375H88.4688V125.75H84.4188V108.25H97.6438V111.5ZM108.69 126.05C103.165 126.05 99.1146 122.2 99.1146 117C99.1146 111.8 103.165 107.95 108.69 107.95C114.19 107.95 118.265 111.775 118.265 117C118.265 122.225 114.19 126.05 108.69 126.05ZM108.69 122.6C111.815 122.6 114.165 120.325 114.165 117C114.165 113.675 111.815 111.4 108.69 111.4C105.565 111.4 103.215 113.675 103.215 117C103.215 120.325 105.565 122.6 108.69 122.6ZM136.808 125.75H132.458L129.083 120.875H128.883H125.358V125.75H121.308V108.25H128.883C133.558 108.25 136.483 110.675 136.483 114.6C136.483 117.225 135.158 119.15 132.883 120.125L136.808 125.75ZM132.383 114.6C132.383 112.675 131.133 111.55 128.658 111.55H125.358V117.65H128.658C131.133 117.65 132.383 116.5 132.383 114.6ZM139.692 125.75V108.25H147.642C153.367 108.25 157.292 111.7 157.292 117C157.292 122.3 153.367 125.75 147.642 125.75H139.692ZM143.742 122.425H147.442C150.917 122.425 153.192 120.35 153.192 117C153.192 113.65 150.917 111.575 147.442 111.575H143.742V122.425ZM187.152 125.75H183.352L183.327 115.25L178.177 123.9H176.352L171.227 115.475V125.75H167.427V108.25H170.777L177.327 119.125L183.777 108.25H187.102L187.152 125.75ZM199.079 126.05C194.104 126.05 191.154 123.2 191.154 118.05V108.25H195.204V117.9C195.204 121.225 196.654 122.6 199.104 122.6C201.579 122.6 203.004 121.225 203.004 117.9V108.25H207.004V118.05C207.004 123.2 204.054 126.05 199.079 126.05ZM216.756 126.05C213.981 126.05 211.181 125.225 209.631 124.025L211.006 120.975C212.481 122.05 214.681 122.8 216.781 122.8C219.181 122.8 220.156 122 220.156 120.925C220.156 117.65 209.981 119.9 209.981 113.4C209.981 110.425 212.381 107.95 217.356 107.95C219.556 107.95 221.806 108.475 223.431 109.5L222.181 112.575C220.556 111.65 218.881 111.2 217.331 111.2C214.931 111.2 214.006 112.1 214.006 113.2C214.006 116.425 224.181 114.2 224.181 120.625C224.181 123.55 221.756 126.05 216.756 126.05ZM230.329 125.75V111.55H224.729V108.25H239.979V111.55H234.379V125.75H230.329ZM254.354 125.75L252.804 122H244.679L243.129 125.75H238.979L246.779 108.25H250.779L258.604 125.75H254.354ZM245.979 118.925H251.529L248.754 112.225L245.979 118.925ZM272.47 108.25H276.47V125.75H273.145L264.42 115.125V125.75H260.42V108.25H263.77L272.47 118.875V108.25ZM292.435 121.85V116.725H296.135V123.825C294.21 125.275 291.56 126.05 289.06 126.05C283.56 126.05 279.51 122.275 279.51 117C279.51 111.725 283.56 107.95 289.135 107.95C292.21 107.95 294.76 109 296.46 110.975L293.86 113.375C292.585 112.025 291.11 111.4 289.335 111.4C285.935 111.4 283.61 113.675 283.61 117C283.61 120.275 285.935 122.6 289.285 122.6C290.385 122.6 291.41 122.4 292.435 121.85ZM104.144 153.75H100.344L100.319 143.25L95.1688 151.9H93.3438L88.2188 143.475V153.75H84.4188V136.25H87.7688L94.3188 147.125L100.769 136.25H104.094L104.144 153.75ZM121.371 153.75L119.821 150H111.696L110.146 153.75H105.996L113.796 136.25H117.796L125.621 153.75H121.371ZM112.996 146.925H118.546L115.771 140.225L112.996 146.925ZM135.567 154.05C130.142 154.05 126.092 150.275 126.092 145C126.092 139.725 130.142 135.95 135.592 135.95C138.617 135.95 141.142 137.05 142.792 139.05L140.192 141.45C139.017 140.1 137.542 139.4 135.792 139.4C132.517 139.4 130.192 141.7 130.192 145C130.192 148.3 132.517 150.6 135.792 150.6C137.542 150.6 139.017 149.9 140.192 148.525L142.792 150.925C141.142 152.95 138.617 154.05 135.567 154.05ZM157.527 136.25H161.577V153.75H157.527V146.575H149.577V153.75H145.527V136.25H149.577V143.15H157.527V136.25ZM164.943 148.275V145.15H172.018V148.275H164.943ZM179.386 150.5H188.911V153.75H175.361V136.25H188.586V139.5H179.386V143.3H187.511V146.45H179.386V150.5Z" fill="#0C0C0C"/>
<path d="M75.8438 216.75C75.8438 221.95 72.0438 226.45 64.1938 227.4V233H59.1938V227.55C54.2438 227.25 49.4938 225.7 46.7438 223.55L49.4938 217.45C51.9938 219.3 55.5938 220.65 59.1938 221V212.65C53.6438 211.3 47.4438 209.45 47.4438 202.3C47.4438 197 51.2938 192.45 59.1938 191.55V186H64.1938V191.45C67.9438 191.75 71.5938 192.75 74.3438 194.5L71.8438 200.65C69.2938 199.2 66.6938 198.35 64.1938 198.05V206.55C69.7438 207.85 75.8438 209.7 75.8438 216.75ZM55.4938 201.9C55.4938 203.65 56.9938 204.6 59.1938 205.3V198.2C56.5438 198.8 55.4938 200.25 55.4938 201.9ZM64.1938 220.8C66.6938 220.25 67.7938 218.95 67.7938 217.35C67.7938 215.6 66.3438 214.65 64.1938 213.9V220.8Z" fill="white"/>
<path d="M116.05 214.91C129.406 217.03 136.19 225.298 136.19 236.216C136.19 248.724 126.544 260.172 105.45 260.172C95.0619 260.172 84.3559 257.31 77.1479 252.222L83.8259 239.078C89.4439 243.318 97.2879 245.756 105.026 245.756C113.612 245.756 118.912 242.258 118.912 236.216C118.912 230.598 114.778 227.1 105.026 227.1H97.1819V215.758L112.446 198.48H80.8579V184.7H132.798V195.83L116.05 214.91ZM140.726 184.7H172.738V258.9H155.566V198.48H140.726V184.7ZM211.704 183.428C232.268 183.428 244.882 196.254 244.882 220.21C244.882 245.862 229.512 260.172 207.04 260.172C199.196 260.172 191.67 258.37 186.476 255.084L192.836 242.47C196.864 245.226 201.634 246.18 206.722 246.18C219.018 246.18 227.074 238.866 227.604 224.556C223.258 228.902 216.898 231.234 209.16 231.234C194.85 231.234 183.614 222.118 183.614 208.126C183.614 192.968 196.016 183.428 211.704 183.428ZM212.976 218.408C220.502 218.408 225.696 213.744 225.696 207.278C225.696 200.918 220.926 196.254 212.764 196.254C205.45 196.254 200.362 200.494 200.362 207.278C200.362 214.062 205.344 218.408 212.976 218.408Z" fill="white"/>
<path d="M253.424 228L269.924 180.9H276.874L260.374 228H253.424Z" fill="#0C0C0C"/>
<path d="M317.284 219H309.684L309.634 198L299.334 215.3H295.684L285.434 198.45V219H277.834V184H284.534L297.634 205.75L310.534 184H317.184L317.284 219ZM342.538 219.6C331.488 219.6 323.388 211.9 323.388 201.5C323.388 191.1 331.488 183.4 342.538 183.4C353.538 183.4 361.688 191.05 361.688 201.5C361.688 211.95 353.538 219.6 342.538 219.6ZM342.538 212.7C348.788 212.7 353.488 208.15 353.488 201.5C353.488 194.85 348.788 190.3 342.538 190.3C336.288 190.3 331.588 194.85 331.588 201.5C331.588 208.15 336.288 212.7 342.538 212.7Z" fill="#0C0C0C"/>
<path d="M286.476 227.175H280.604V230.135H285.788V232.215H280.604V236.295H278.012V225.095H286.476V227.175ZM293.545 236.487C290.009 236.487 287.417 234.023 287.417 230.695C287.417 227.367 290.009 224.903 293.545 224.903C297.065 224.903 299.673 227.351 299.673 230.695C299.673 234.039 297.065 236.487 293.545 236.487ZM293.545 234.279C295.545 234.279 297.049 232.823 297.049 230.695C297.049 228.567 295.545 227.111 293.545 227.111C291.545 227.111 290.041 228.567 290.041 230.695C290.041 232.823 291.545 234.279 293.545 234.279ZM311.541 236.295H308.757L306.597 233.175H306.469H304.213V236.295H301.621V225.095H306.469C309.461 225.095 311.333 226.647 311.333 229.159C311.333 230.839 310.485 232.071 309.029 232.695L311.541 236.295ZM308.709 229.159C308.709 227.927 307.909 227.207 306.325 227.207H304.213V231.111H306.325C307.909 231.111 308.709 230.375 308.709 229.159ZM322.446 229.655C324.462 229.975 325.486 231.223 325.486 232.871C325.486 234.759 324.03 236.487 320.846 236.487C319.278 236.487 317.662 236.055 316.574 235.287L317.582 233.303C318.43 233.943 319.614 234.311 320.782 234.311C322.078 234.311 322.878 233.783 322.878 232.871C322.878 232.023 322.254 231.495 320.782 231.495H319.598V229.783L321.902 227.175H317.134V225.095H324.974V226.775L322.446 229.655ZM332.075 229.271C334.235 229.271 335.931 230.647 335.931 232.759C335.931 235.047 334.059 236.487 331.691 236.487C328.603 236.487 326.683 234.551 326.683 230.935C326.683 227.063 329.019 224.903 332.395 224.903C333.579 224.903 334.731 225.175 335.515 225.671L334.555 227.575C333.931 227.159 333.211 227.015 332.459 227.015C330.587 227.015 329.387 228.119 329.307 230.263C329.963 229.607 330.907 229.271 332.075 229.271ZM331.547 234.551C332.651 234.551 333.419 233.911 333.419 232.887C333.419 231.863 332.667 231.207 331.515 231.207C330.379 231.207 329.579 231.911 329.579 232.887C329.579 233.847 330.299 234.551 331.547 234.551ZM290.636 250.295H288.204L288.188 243.575L284.892 249.111H283.724L280.444 243.719V250.295H278.012V239.095H280.156L284.348 246.055L288.476 239.095H290.604L290.636 250.295ZM298.717 250.487C295.181 250.487 292.589 248.023 292.589 244.695C292.589 241.367 295.181 238.903 298.717 238.903C302.237 238.903 304.845 241.351 304.845 244.695C304.845 248.039 302.237 250.487 298.717 250.487ZM298.717 248.279C300.717 248.279 302.221 246.823 302.221 244.695C302.221 242.567 300.717 241.111 298.717 241.111C296.717 241.111 295.213 242.567 295.213 244.695C295.213 246.823 296.717 248.279 298.717 248.279ZM314.505 239.095H317.065V250.295H314.937L309.353 243.495V250.295H306.793V239.095H308.937L314.505 245.895V239.095ZM322.035 250.295V241.207H318.451V239.095H328.211V241.207H324.627V250.295H322.035ZM337.285 239.095H339.877V250.295H337.285V245.703H332.197V250.295H329.605V239.095H332.197V243.511H337.285V239.095Z" fill="#0C0C0C"/>
<rect x="82.3438" y="271.189" width="158.02" height="46" rx="3" fill="#6C98E0"/>
<path d="M111.846 300.189V290.389H114.114V298.341H119.028V300.189H111.846ZM122.849 298.369H128.183V300.189H120.595V290.389H128.001V292.209H122.849V294.337H127.399V296.101H122.849V298.369ZM137.609 300.189L136.741 298.089H132.191L131.323 300.189H128.999L133.367 290.389H135.607L139.989 300.189H137.609ZM132.919 296.367H136.027L134.473 292.615L132.919 296.367ZM149.986 300.189H147.55L145.66 297.459H145.548H143.574V300.189H141.306V290.389H145.548C148.166 290.389 149.804 291.747 149.804 293.945C149.804 295.415 149.062 296.493 147.788 297.039L149.986 300.189ZM147.508 293.945C147.508 292.867 146.808 292.237 145.422 292.237H143.574V295.653H145.422C146.808 295.653 147.508 295.009 147.508 293.945ZM158.649 290.389H160.889V300.189H159.027L154.141 294.239V300.189H151.901V290.389H153.777L158.649 296.339V290.389ZM178.819 300.189H176.691L176.677 294.309L173.793 299.153H172.771L169.901 294.435V300.189H167.773V290.389H169.649L173.317 296.479L176.929 290.389H178.791L178.819 300.189ZM186.19 300.357C183.096 300.357 180.828 298.201 180.828 295.289C180.828 292.377 183.096 290.221 186.19 290.221C189.27 290.221 191.552 292.363 191.552 295.289C191.552 298.215 189.27 300.357 186.19 300.357ZM186.19 298.425C187.94 298.425 189.256 297.151 189.256 295.289C189.256 293.427 187.94 292.153 186.19 292.153C184.44 292.153 183.124 293.427 183.124 295.289C183.124 297.151 184.44 298.425 186.19 298.425ZM202.236 300.189H199.8L197.91 297.459H197.798H195.824V300.189H193.556V290.389H197.798C200.416 290.389 202.054 291.747 202.054 293.945C202.054 295.415 201.312 296.493 200.038 297.039L202.236 300.189ZM199.758 293.945C199.758 292.867 199.058 292.237 197.672 292.237H195.824V295.653H197.672C199.058 295.653 199.758 295.009 199.758 293.945ZM206.405 298.369H211.739V300.189H204.151V290.389H211.557V292.209H206.405V294.337H210.955V296.101H206.405V298.369Z" fill="white"/>
</svg>
