<svg width="36" height="35" viewBox="0 0 36 35" fill="none" xmlns="http://www.w3.org/2000/svg">
<rect x="0.5" width="35" height="35" rx="17.5" fill="#2F3234"/>
<path d="M25.9625 17.75C25.9625 21.1406 23.4742 23.957 20.2203 24.4492V19.7188H21.8063L22.107 17.75H20.2203V16.4922C20.2203 15.9453 20.4938 15.4258 21.3414 15.4258H22.1891V13.7578C22.1891 13.7578 21.4234 13.6211 20.6578 13.6211C19.1266 13.6211 18.1148 14.5781 18.1148 16.2734V17.75H16.3922V19.7188H18.1148V24.4492C14.8609 23.957 12.4 21.1406 12.4 17.75C12.4 14.0039 15.4352 10.9688 19.1813 10.9688C22.9273 10.9688 25.9625 14.0039 25.9625 17.75Z" fill="white"/>
</svg>
