<svg width="46" height="45" viewBox="0 0 46 45" fill="none" xmlns="http://www.w3.org/2000/svg">
<rect width="45" height="45" transform="translate(0.5)" fill="#3B3D3F"/>
<path d="M32.8469 23C32.8469 27.8438 29.2922 31.8672 24.6438 32.5703V25.8125H26.9094L27.3391 23H24.6438V21.2031C24.6438 20.4219 25.0344 19.6797 26.2453 19.6797H27.4563V17.2969C27.4563 17.2969 26.3625 17.1016 25.2688 17.1016C23.0813 17.1016 21.6359 18.4688 21.6359 20.8906V23H19.175V25.8125H21.6359V32.5703C16.9875 31.8672 13.4719 27.8438 13.4719 23C13.4719 17.6484 17.8078 13.3125 23.1594 13.3125C28.5109 13.3125 32.8469 17.6484 32.8469 23Z" fill="white"/>
</svg>
