<svg width="33" height="34" viewBox="0 0 33 34" fill="none" xmlns="http://www.w3.org/2000/svg">
<path d="M16.5898 0.730469C14.3542 0.730469 12.2402 1.15104 10.248 1.99219C8.27799 2.85547 6.55697 4.02311 5.08496 5.49512C3.61296 6.96712 2.44531 8.68815 1.58203 10.6582C0.740885 12.6504 0.320312 14.7643 0.320312 17C0.320312 19.2357 0.740885 21.3496 1.58203 23.3418C2.44531 25.3118 3.61296 27.0329 5.08496 28.5049C6.55697 29.9769 8.27799 31.1445 10.248 32.0078C12.2402 32.849 14.3542 33.2695 16.5898 33.2695C18.8255 33.2695 20.9395 32.849 22.9316 32.0078C24.9017 31.1445 26.6227 29.9769 28.0947 28.5049C29.5667 27.0329 30.7344 25.3118 31.5977 23.3418C32.4388 21.3496 32.8594 19.2357 32.8594 17C32.8594 14.7643 32.4388 12.6504 31.5977 10.6582C30.7344 8.68815 29.5667 6.96712 28.0947 5.49512C26.6227 4.02311 24.9017 2.85547 22.9316 1.99219C20.9395 1.15104 18.8255 0.730469 16.5898 0.730469ZM16.5898 30.6465C14.7083 30.6465 12.9375 30.2923 11.2773 29.584C9.61719 28.8757 8.16732 27.9017 6.92773 26.6621C5.68815 25.4225 4.71419 23.9727 4.00586 22.3125C3.29753 20.6523 2.94336 18.8815 2.94336 17C2.94336 15.1185 3.29753 13.3477 4.00586 11.6875C4.71419 10.0273 5.68815 8.57747 6.92773 7.33789C8.16732 6.09831 9.61719 5.12435 11.2773 4.41602C12.9375 3.70768 14.7083 3.35352 16.5898 3.35352C18.4714 3.35352 20.2422 3.70768 21.9023 4.41602C23.5625 5.12435 25.0124 6.09831 26.252 7.33789C27.4915 8.57747 28.4655 10.0273 29.1738 11.6875C29.8822 13.3477 30.2363 15.1185 30.2363 17C30.2363 18.8815 29.8822 20.6523 29.1738 22.3125C28.4655 23.9727 27.4915 25.4225 26.252 26.6621C25.0124 27.9017 23.5625 28.8757 21.9023 29.584C20.2422 30.2923 18.4714 30.6465 16.5898 30.6465ZM16.5898 8.59961C15.0846 8.59961 13.8008 9.14193 12.7383 10.2266C11.6758 11.3112 11.1445 12.6172 11.1445 14.1445C11.1445 14.7643 11.3438 15.5833 11.7422 16.6016C12.1406 17.6198 12.7272 18.8594 13.502 20.3203C14.0775 21.3385 14.5977 22.224 15.0625 22.9766C15.5273 23.7292 15.7708 24.1165 15.793 24.1387L16.5898 25.4004L17.3867 24.1387C17.4089 24.1165 17.6523 23.7292 18.1172 22.9766C18.582 22.224 19.1022 21.3385 19.6777 20.3203C20.4525 18.8594 21.0335 17.6198 21.4209 16.6016C21.8083 15.5833 22.002 14.7643 22.002 14.1445C22.002 12.6172 21.4762 11.3112 20.4248 10.2266C19.3734 9.14193 18.0951 8.59961 16.5898 8.59961ZM16.5898 17C15.8151 17 15.151 16.7178 14.5977 16.1533C14.0443 15.5889 13.7676 14.9082 13.7676 14.1113C13.7676 13.3145 14.0443 12.6338 14.5977 12.0693C15.151 11.5049 15.8151 11.2227 16.5898 11.2227C17.3646 11.2227 18.0286 11.5049 18.582 12.0693C19.1354 12.6338 19.4121 13.3145 19.4121 14.1113C19.4121 14.9082 19.1354 15.5889 18.582 16.1533C18.0286 16.7178 17.3646 17 16.5898 17Z" fill="#CC6108"/>
</svg>
