<svg width="46" height="45" viewBox="0 0 46 45" fill="none" xmlns="http://www.w3.org/2000/svg">
<rect width="45" height="45" transform="translate(0.5)" fill="#3B3D3F"/>
<path d="M30.6516 14.25C31.3156 14.25 31.9016 14.8359 31.9016 15.5391V30.5C31.9016 31.2031 31.3156 31.75 30.6516 31.75H15.6125C14.9484 31.75 14.4016 31.2031 14.4016 30.5V15.5391C14.4016 14.8359 14.9484 14.25 15.6125 14.25H30.6516ZM19.675 29.25V20.9297H17.0969V29.25H19.675ZM18.3859 19.7578C19.2063 19.7578 19.8703 19.0938 19.8703 18.2734C19.8703 17.4531 19.2063 16.75 18.3859 16.75C17.5266 16.75 16.8625 17.4531 16.8625 18.2734C16.8625 19.0938 17.5266 19.7578 18.3859 19.7578ZM29.4016 29.25V24.6797C29.4016 22.4531 28.8938 20.6953 26.2766 20.6953C25.0266 20.6953 24.1672 21.3984 23.8156 22.0625H23.7766V20.9297H21.3156V29.25H23.8938V25.1484C23.8938 24.0547 24.0891 23 25.4563 23C26.7844 23 26.7844 24.25 26.7844 25.1875V29.25H29.4016Z" fill="white"/>
</svg>
