<svg width="46" height="45" viewBox="0 0 46 45" fill="none" xmlns="http://www.w3.org/2000/svg">
<rect width="45" height="45" transform="translate(0.5)" fill="#3B3D3F"/>
<path d="M23.1516 18.5078C25.6125 18.5078 27.6438 20.5391 27.6438 23C27.6438 25.5 25.6125 27.4922 23.1516 27.4922C20.6516 27.4922 18.6594 25.5 18.6594 23C18.6594 20.5391 20.6516 18.5078 23.1516 18.5078ZM23.1516 25.9297C24.7531 25.9297 26.0422 24.6406 26.0422 23C26.0422 21.3984 24.7531 20.1094 23.1516 20.1094C21.5109 20.1094 20.2219 21.3984 20.2219 23C20.2219 24.6406 21.55 25.9297 23.1516 25.9297ZM28.8547 18.3516C28.8547 18.9375 28.3859 19.4062 27.8 19.4062C27.2141 19.4062 26.7453 18.9375 26.7453 18.3516C26.7453 17.7656 27.2141 17.2969 27.8 17.2969C28.3859 17.2969 28.8547 17.7656 28.8547 18.3516ZM31.8234 19.4062C31.9016 20.8516 31.9016 25.1875 31.8234 26.6328C31.7453 28.0391 31.4328 29.25 30.4172 30.3047C29.4016 31.3203 28.1516 31.6328 26.7453 31.7109C25.3 31.7891 20.9641 31.7891 19.5188 31.7109C18.1125 31.6328 16.9016 31.3203 15.8469 30.3047C14.8313 29.25 14.5188 28.0391 14.4406 26.6328C14.3625 25.1875 14.3625 20.8516 14.4406 19.4062C14.5188 18 14.8313 16.75 15.8469 15.7344C16.9016 14.7188 18.1125 14.4062 19.5188 14.3281C20.9641 14.25 25.3 14.25 26.7453 14.3281C28.1516 14.4062 29.4016 14.7188 30.4172 15.7344C31.4328 16.75 31.7453 18 31.8234 19.4062ZM29.9484 28.1562C30.4172 27.0234 30.3 24.2891 30.3 23C30.3 21.75 30.4172 19.0156 29.9484 17.8438C29.6359 17.1016 29.05 16.4766 28.3078 16.2031C27.1359 15.7344 24.4016 15.8516 23.1516 15.8516C21.8625 15.8516 19.1281 15.7344 17.9953 16.2031C17.2141 16.5156 16.6281 17.1016 16.3156 17.8438C15.8469 19.0156 15.9641 21.75 15.9641 23C15.9641 24.2891 15.8469 27.0234 16.3156 28.1562C16.6281 28.9375 17.2141 29.5234 17.9953 29.8359C19.1281 30.3047 21.8625 30.1875 23.1516 30.1875C24.4016 30.1875 27.1359 30.3047 28.3078 29.8359C29.05 29.5234 29.675 28.9375 29.9484 28.1562Z" fill="white"/>
</svg>
