<svg width="165" height="29" viewBox="0 0 165 29" fill="none" xmlns="http://www.w3.org/2000/svg">
<g clip-path="url(#clip0_18_61)">
<g clip-path="url(#clip1_18_61)">
<g clip-path="url(#clip2_18_61)">
<path fill-rule="evenodd" clip-rule="evenodd" d="M134.505 13.1162C132.578 11.6812 130.241 10.7382 128.232 10.7382C126.961 10.7382 126.305 11.2302 126.305 12.0092C126.305 12.7472 127.084 13.1982 129.38 14.1002C132.578 15.3712 135.571 16.8882 135.571 20.5782C135.571 24.8422 132.373 28.5322 125.977 28.5322C121.754 28.5322 117.695 27.0562 115.03 24.6782L118.884 20.1272C121.016 22.0542 124.009 23.1202 126.264 23.1202C127.576 23.1202 128.232 22.5872 128.232 21.7672C128.232 20.9882 127.371 20.5372 125.198 19.6762C121.828 18.3432 119.213 16.8562 118.988 13.6492H118.516C114.252 13.6492 111.505 16.0272 110.111 21.3162L108.306 27.9992H100.517L106.462 5.81817H114.252L113.063 10.2872C115.195 7.13017 117.778 5.20317 121.386 5.44917L120.526 8.63217C122.126 6.61817 124.906 5.32617 128.642 5.32617C132.66 5.32617 136.227 6.80217 138.236 8.44217L134.505 13.1162ZM89.529 28.5322C82.764 28.5322 78.664 24.0632 78.664 18.2002C78.664 11.5172 84.281 5.32617 91.702 5.32617C98.508 5.32617 102.608 9.79517 102.608 15.6172C102.608 22.3412 96.991 28.5322 89.529 28.5322ZM91.292 11.8042C88.217 11.8042 86.126 15.0432 86.126 17.9132C86.126 20.4552 87.684 22.0542 89.98 22.0542C93.055 22.0542 95.146 18.8152 95.146 15.9042C95.146 13.4032 93.588 11.8042 91.292 11.8042ZM79.894 12.0912H74.728L72.842 19.0612C72.719 19.5942 72.637 20.0862 72.637 20.4142C72.637 21.3162 73.17 21.8082 74.4 21.8082C75.261 21.8082 76.204 21.6032 77.352 21.1932L75.63 27.6712C74.236 28.1632 72.637 28.4502 71.038 28.4502C66.528 28.4502 64.314 26.4822 64.314 23.2022C64.314 22.3002 64.437 21.3572 64.724 20.2912L66.938 12.0912H64.314L65.995 5.81817H68.619L70.136 0.201172H77.926L76.409 5.81817H81.575L79.894 12.0912ZM50.825 28.5322C44.06 28.5322 39.96 24.0632 39.96 18.2002C39.96 11.5172 45.577 5.32617 52.998 5.32617C59.804 5.32617 63.904 9.79517 63.904 15.6172C63.904 22.3412 58.287 28.5322 50.825 28.5322ZM52.588 11.8042C49.513 11.8042 47.422 15.0432 47.422 17.9132C47.422 20.4552 48.98 22.0542 51.276 22.0542C54.351 22.0542 56.442 18.8152 56.442 15.9042C56.442 13.4032 54.884 11.8042 52.588 11.8042Z" fill="white"/>
<path fill-rule="evenodd" clip-rule="evenodd" d="M39.6326 15.9452L36.3936 27.9992H28.6446L31.7196 16.3962C31.8836 15.8222 32.0066 15.0842 32.0066 14.5922C32.0066 13.1162 31.2686 12.2552 29.6286 12.2552C27.5376 12.2552 26.2656 13.7312 25.5696 16.2732L22.4116 27.9992H14.6216L17.7376 16.3962C17.9016 15.8222 18.0246 15.0842 18.0246 14.5922C18.0246 13.1162 17.2456 12.0052 15.6466 12.0052C20.7156 12.0052 4.85763 12.0172 4.85763 12.0172L6.58563 5.81817H14.3756L13.7196 8.27817C15.2366 6.72017 17.2866 5.32617 19.9106 5.32617C22.9446 5.32617 24.8716 6.88417 25.6926 9.18017C27.7836 6.80217 30.4896 5.32617 33.7286 5.32617C37.9516 5.32617 40.2886 7.86817 40.2886 11.9272C40.2886 13.1162 40.0016 14.5512 39.6326 15.9452ZM11.6696 15.9992C11.6416 16.0902 11.6136 16.1792 11.5876 16.2732L8.43063 27.9992H0.640625L3.85763 15.9992H11.6696Z" fill="#CC6119"/>
</g>
</g>
</g>
<path d="M148.397 24H139.513V23.5679C143.863 19.6274 145.848 17.5474 145.848 16.2729C145.848 15.1523 144.94 14.354 144.193 14.354C143.116 14.354 142.171 15.2769 142.171 16.4121L140.018 15.8628C140.018 13.7241 141.893 11.981 144.112 11.981C146.383 11.981 148.229 13.9658 148.229 16.1484C148.229 18.0894 146.258 20.4185 144.566 21.6343H148.397V24ZM149.686 22.8647C149.686 22.0371 150.375 21.3486 151.202 21.3486C152.022 21.3486 152.718 22.0444 152.718 22.8647C152.718 23.6924 152.03 24.3735 151.202 24.3735C150.367 24.3735 149.686 23.6997 149.686 22.8647ZM154 18.0967C154 14.5151 155.97 11.981 158.9 11.981C161.822 11.981 163.785 14.5151 163.785 18.0967C163.785 21.6709 161.822 24.2051 158.9 24.2051C155.97 24.2051 154 21.6709 154 18.0967ZM156.366 18.0967C156.366 20.272 157.347 21.8101 158.885 21.8101C160.423 21.8101 161.405 20.272 161.405 18.0967C161.405 15.9141 160.423 14.3687 158.885 14.3687C157.347 14.3687 156.366 15.9141 156.366 18.0967Z" fill="#A0DBE1" fill-opacity="0.95"/>
<defs>
<clipPath id="clip0_18_61">
<rect width="138" height="29" fill="white" transform="translate(0.5)"/>
</clipPath>
<clipPath id="clip1_18_61">
<rect width="138" height="29" fill="white" transform="translate(0.5)"/>
</clipPath>
<clipPath id="clip2_18_61">
<rect width="138" height="29" fill="white" transform="translate(0.5)"/>
</clipPath>
</defs>
</svg>
