<svg width="34" height="33" viewBox="0 0 34 33" fill="none" xmlns="http://www.w3.org/2000/svg">
<path d="M17.0898 0C14.8125 0 12.6748 0.429688 10.6768 1.28906C8.67871 2.16992 6.93311 3.35693 5.43994 4.8501C3.94678 6.34326 2.75977 8.08887 1.87891 10.0869C1.01953 12.085 0.589844 14.2227 0.589844 16.5C0.589844 18.7773 1.01953 20.915 1.87891 22.9131C2.75977 24.9111 3.94678 26.6567 5.43994 28.1499C6.93311 29.6431 8.67871 30.8301 10.6768 31.7109C12.6748 32.5703 14.8125 33 17.0898 33C19.3672 33 21.5049 32.5703 23.5029 31.7109C25.501 30.8301 27.2466 29.6431 28.7397 28.1499C30.2329 26.6567 31.4199 24.9111 32.3008 22.9131C33.1602 20.915 33.5898 18.7773 33.5898 16.5C33.5898 14.2227 33.1602 12.085 32.3008 10.0869C31.4199 8.08887 30.2329 6.34326 28.7397 4.8501C27.2466 3.35693 25.501 2.16992 23.5029 1.28906C21.5049 0.429688 19.3672 0 17.0898 0ZM17.0898 30.3252C15.1777 30.3252 13.3838 29.9707 11.708 29.2617C10.0322 28.5312 8.56592 27.5376 7.30908 26.2808C6.05225 25.0239 5.05859 23.5576 4.32812 21.8818C3.61914 20.2061 3.26465 18.4121 3.26465 16.5C3.26465 14.5879 3.61914 12.7939 4.32812 11.1182C5.05859 9.44238 6.05225 7.97607 7.30908 6.71924C8.56592 5.4624 10.0322 4.46875 11.708 3.73828C13.3838 3.0293 15.1777 2.6748 17.0898 2.6748C19.002 2.6748 20.7959 3.0293 22.4717 3.73828C24.1475 4.46875 25.6138 5.4624 26.8706 6.71924C28.1274 7.97607 29.1211 9.44238 29.8516 11.1182C30.5605 12.7939 30.915 14.5879 30.915 16.5C30.915 18.4121 30.5605 20.2061 29.8516 21.8818C29.1211 23.5576 28.1274 25.0239 26.8706 26.2808C25.6138 27.5376 24.1475 28.5312 22.4717 29.2617C20.7959 29.9707 19.002 30.3252 17.0898 30.3252ZM22.5361 10.4092C21.7197 9.61426 20.7422 9.2168 19.6035 9.2168C18.4648 9.2168 17.498 9.61426 16.7031 10.4092L11.0312 16.1133C10.2148 16.9082 9.80664 17.875 9.80664 19.0137C9.80664 20.1523 10.2148 21.1299 11.0312 21.9463L12.3203 23.2354C12.5352 23.4502 12.7876 23.5576 13.0776 23.5576C13.3677 23.5576 13.6201 23.4502 13.835 23.2354L15.6396 21.4307C15.8545 21.2158 15.9619 20.958 15.9619 20.6572C15.9619 20.3564 15.8545 20.1094 15.6396 19.916L14.9951 19.2715C14.9736 19.2285 14.9521 19.1909 14.9307 19.1587C14.9092 19.1265 14.8984 19.0889 14.8984 19.0459C14.6621 18.7451 14.5547 18.4067 14.5762 18.0308C14.5977 17.6548 14.748 17.3379 15.0273 17.0801L17.6699 14.4375C17.9277 14.1582 18.2446 14.0078 18.6206 13.9863C18.9966 13.9648 19.335 14.0723 19.6357 14.3086C19.6787 14.3086 19.7163 14.3193 19.7485 14.3408C19.7808 14.3623 19.8184 14.3838 19.8613 14.4053L20.5059 15.0498C20.7207 15.2646 20.9731 15.3721 21.2632 15.3721C21.5532 15.3721 21.8057 15.2646 22.0205 15.0498L23.8252 13.2451C24.04 13.0303 24.1475 12.7778 24.1475 12.4878C24.1475 12.1978 24.04 11.9453 23.8252 11.7305L22.5361 10.4092Z" fill="#CC6108"/>
</svg>
