<svg width="14" height="11" viewBox="0 0 14 11" fill="none" xmlns="http://www.w3.org/2000/svg">
<path d="M13.4697 8.72461L10.499 1.25977C10.4736 1.21745 10.4461 1.17725 10.4165 1.13916C10.3869 1.10107 10.3509 1.0651 10.3086 1.03125C10.2663 0.997396 10.2218 0.972005 10.1753 0.955078C10.1287 0.938151 10.0843 0.929688 10.042 0.929688H7.61719C7.65104 0.929688 7.68066 0.936035 7.70605 0.94873C7.73145 0.961426 7.75684 0.976237 7.78223 0.993164C7.80762 1.01855 7.82666 1.04395 7.83936 1.06934C7.85205 1.09473 7.8584 1.12435 7.8584 1.1582L7.97266 2.5293C7.97266 2.56315 7.96842 2.59277 7.95996 2.61816C7.9515 2.64355 7.93457 2.66895 7.90918 2.69434C7.89225 2.71126 7.86898 2.72607 7.83936 2.73877C7.80973 2.75146 7.78223 2.75781 7.75684 2.75781H6.56348C6.53809 2.75781 6.51058 2.75146 6.48096 2.73877C6.45133 2.72607 6.42806 2.71126 6.41113 2.69434C6.38574 2.66895 6.36882 2.64355 6.36035 2.61816C6.35189 2.59277 6.34766 2.56315 6.34766 2.5293L6.46191 1.1582C6.46191 1.12435 6.46826 1.09473 6.48096 1.06934C6.49365 1.04395 6.5127 1.01855 6.53809 0.993164C6.56348 0.976237 6.58887 0.961426 6.61426 0.94873C6.63965 0.936035 6.66927 0.929688 6.70312 0.929688H4.27832C4.236 0.929688 4.19157 0.938151 4.14502 0.955078C4.09847 0.972005 4.05404 0.997396 4.01172 1.03125C3.9694 1.0651 3.93343 1.10107 3.90381 1.13916C3.87419 1.17725 3.84668 1.21745 3.82129 1.25977L0.850586 8.72461C0.782878 8.86849 0.734212 9.01025 0.70459 9.1499C0.674967 9.28955 0.660156 9.42285 0.660156 9.5498C0.660156 9.72754 0.687663 9.85872 0.742676 9.94336C0.797689 10.028 0.880208 10.0703 0.990234 10.0703H6.01758C5.98372 10.0703 5.9541 10.064 5.92871 10.0513C5.90332 10.0386 5.88216 10.0238 5.86523 10.0068C5.83984 9.98145 5.82292 9.95605 5.81445 9.93066C5.80599 9.90527 5.80176 9.87565 5.80176 9.8418L5.94141 8.01367C5.94987 7.97982 5.96045 7.9502 5.97314 7.9248C5.98584 7.89941 6.00488 7.87402 6.03027 7.84863C6.0472 7.83171 6.07048 7.81689 6.1001 7.8042C6.12972 7.7915 6.15723 7.78516 6.18262 7.78516H8.1377C8.16309 7.78516 8.19059 7.7915 8.22021 7.8042C8.24984 7.81689 8.27311 7.83171 8.29004 7.84863C8.31543 7.87402 8.33447 7.89941 8.34717 7.9248C8.35986 7.9502 8.37044 7.97982 8.37891 8.01367L8.51855 9.8418C8.51855 9.87565 8.51432 9.90527 8.50586 9.93066C8.4974 9.95605 8.48047 9.98145 8.45508 10.0068C8.43815 10.0238 8.41699 10.0386 8.3916 10.0513C8.36621 10.064 8.33659 10.0703 8.30273 10.0703H13.3301C13.4401 10.0703 13.5226 10.028 13.5776 9.94336C13.6326 9.85872 13.6602 9.72754 13.6602 9.5498C13.6602 9.42285 13.6453 9.28955 13.6157 9.1499C13.5861 9.01025 13.5374 8.86849 13.4697 8.72461ZM8.23926 6.21094C8.23926 6.24479 8.23503 6.2723 8.22656 6.29346C8.2181 6.31462 8.20117 6.33789 8.17578 6.36328C8.15885 6.38021 8.1377 6.3929 8.1123 6.40137C8.08691 6.40983 8.06152 6.41406 8.03613 6.41406H6.28418C6.25879 6.41406 6.2334 6.40983 6.20801 6.40137C6.18262 6.3929 6.16146 6.38021 6.14453 6.36328C6.11914 6.33789 6.10221 6.31462 6.09375 6.29346C6.08529 6.2723 6.08105 6.24479 6.08105 6.21094V6.18555L6.25879 3.90039C6.25879 3.86654 6.26514 3.83691 6.27783 3.81152C6.29053 3.78613 6.30957 3.76074 6.33496 3.73535C6.36035 3.71842 6.38574 3.70361 6.41113 3.69092C6.43652 3.67822 6.46615 3.67188 6.5 3.67188H7.82031C7.85417 3.67188 7.88379 3.67822 7.90918 3.69092C7.93457 3.70361 7.95996 3.71842 7.98535 3.73535C8.01074 3.76074 8.02979 3.78613 8.04248 3.81152C8.05518 3.83691 8.06152 3.86654 8.06152 3.90039L8.23926 6.18555V6.21094Z" fill="#AAAAAA"/>
</svg>
