<svg width="15" height="12" viewBox="0 0 15 12" fill="none" xmlns="http://www.w3.org/2000/svg">
<path d="M12.8008 2.90625C12.8008 3.04297 12.8008 3.15234 12.8008 3.28906C12.8008 7.08984 9.92969 11.4375 4.65234 11.4375C3.01172 11.4375 1.50781 10.9727 0.25 10.1523C0.46875 10.1797 0.6875 10.207 0.933594 10.207C2.27344 10.207 3.50391 9.74219 4.48828 8.97656C3.23047 8.94922 2.16406 8.12891 1.80859 6.98047C2 7.00781 2.16406 7.03516 2.35547 7.03516C2.60156 7.03516 2.875 6.98047 3.09375 6.92578C1.78125 6.65234 0.796875 5.50391 0.796875 4.10938V4.08203C1.17969 4.30078 1.64453 4.41016 2.10938 4.4375C1.31641 3.91797 0.824219 3.04297 0.824219 2.05859C0.824219 1.51172 0.960938 1.01953 1.20703 0.609375C2.62891 2.33203 4.76172 3.48047 7.14062 3.61719C7.08594 3.39844 7.05859 3.17969 7.05859 2.96094C7.05859 1.375 8.34375 0.0898438 9.92969 0.0898438C10.75 0.0898438 11.4883 0.417969 12.0352 0.992188C12.6641 0.855469 13.293 0.609375 13.8398 0.28125C13.6211 0.964844 13.1836 1.51172 12.582 1.86719C13.1562 1.8125 13.7305 1.64844 14.2227 1.42969C13.8398 2.00391 13.3477 2.49609 12.8008 2.90625Z" fill="#6C98E0"/>
</svg>
