<svg width="16" height="16" viewBox="0 0 16 16" fill="none" xmlns="http://www.w3.org/2000/svg">
<path d="M4.4125 12.9375C4.4125 14.1328 3.44961 15.0625 2.2875 15.0625C1.09219 15.0625 0.1625 14.1328 0.1625 12.9375C0.1625 11.7754 1.09219 10.8125 2.2875 10.8125C3.44961 10.8125 4.4125 11.7754 4.4125 12.9375ZM10.223 14.5312C10.2563 14.8301 9.99063 15.0625 9.6918 15.0625H8.09805C7.83242 15.0625 7.6 14.8633 7.5668 14.5977C7.33438 10.8789 4.34609 7.89062 0.627344 7.6582C0.361719 7.625 0.1625 7.39258 0.1625 7.12695V5.5332C0.1625 5.23438 0.394922 4.96875 0.69375 5.00195C5.84023 5.26758 9.95742 9.38477 10.223 14.5312ZM15.0043 14.5312C15.0375 14.8301 14.8051 15.0625 14.473 15.0957H12.8793C12.6137 15.0957 12.3813 14.8633 12.348 14.5645C12.1156 8.22266 7.00234 3.10938 0.660547 2.87695C0.361719 2.84375 0.1625 2.61133 0.1625 2.3457V0.751953C0.1625 0.419922 0.394922 0.1875 0.69375 0.220703C8.49648 0.486328 14.7387 6.76172 15.0043 14.5312Z" fill="white"/>
</svg>
