<svg width="15" height="13" viewBox="0 0 15 13" fill="none" xmlns="http://www.w3.org/2000/svg">
<path d="M4.16172 12.875V1.9375C4.16172 1.22656 4.73594 0.625 5.47422 0.625H9.84922C10.5602 0.625 11.1617 1.22656 11.1617 1.9375V12.875H4.16172ZM5.91172 2.375V3.25H9.41172V2.375H5.91172ZM14.6617 4.5625V11.5625C14.6617 12.3008 14.0602 12.875 13.3492 12.875H12.0367V3.25H13.3492C14.0602 3.25 14.6617 3.85156 14.6617 4.5625ZM3.28672 12.875H1.97422C1.23594 12.875 0.661719 12.3008 0.661719 11.5625V4.5625C0.661719 3.85156 1.23594 3.25 1.97422 3.25H3.28672V12.875Z" fill="white"/>
</svg>
