<svg width="13" height="13" viewBox="0 0 13 13" fill="none" xmlns="http://www.w3.org/2000/svg">
<path d="M6.375 3.60547C8.09766 3.60547 9.51953 5.02734 9.51953 6.75C9.51953 8.5 8.09766 9.89453 6.375 9.89453C4.625 9.89453 3.23047 8.5 3.23047 6.75C3.23047 5.02734 4.625 3.60547 6.375 3.60547ZM6.375 8.80078C7.49609 8.80078 8.39844 7.89844 8.39844 6.75C8.39844 5.62891 7.49609 4.72656 6.375 4.72656C5.22656 4.72656 4.32422 5.62891 4.32422 6.75C4.32422 7.89844 5.25391 8.80078 6.375 8.80078ZM10.3672 3.49609C10.3672 3.90625 10.0391 4.23438 9.62891 4.23438C9.21875 4.23438 8.89062 3.90625 8.89062 3.49609C8.89062 3.08594 9.21875 2.75781 9.62891 2.75781C10.0391 2.75781 10.3672 3.08594 10.3672 3.49609ZM12.4453 4.23438C12.5 5.24609 12.5 8.28125 12.4453 9.29297C12.3906 10.2773 12.1719 11.125 11.4609 11.8633C10.75 12.5742 9.875 12.793 8.89062 12.8477C7.87891 12.9023 4.84375 12.9023 3.83203 12.8477C2.84766 12.793 2 12.5742 1.26172 11.8633C0.550781 11.125 0.332031 10.2773 0.277344 9.29297C0.222656 8.28125 0.222656 5.24609 0.277344 4.23438C0.332031 3.25 0.550781 2.375 1.26172 1.66406C2 0.953125 2.84766 0.734375 3.83203 0.679688C4.84375 0.625 7.87891 0.625 8.89062 0.679688C9.875 0.734375 10.75 0.953125 11.4609 1.66406C12.1719 2.375 12.3906 3.25 12.4453 4.23438ZM11.1328 10.3594C11.4609 9.56641 11.3789 7.65234 11.3789 6.75C11.3789 5.875 11.4609 3.96094 11.1328 3.14062C10.9141 2.62109 10.5039 2.18359 9.98438 1.99219C9.16406 1.66406 7.25 1.74609 6.375 1.74609C5.47266 1.74609 3.55859 1.66406 2.76562 1.99219C2.21875 2.21094 1.80859 2.62109 1.58984 3.14062C1.26172 3.96094 1.34375 5.875 1.34375 6.75C1.34375 7.65234 1.26172 9.56641 1.58984 10.3594C1.80859 10.9062 2.21875 11.3164 2.76562 11.5352C3.55859 11.8633 5.47266 11.7812 6.375 11.7812C7.25 11.7812 9.16406 11.8633 9.98438 11.5352C10.5039 11.3164 10.9414 10.9062 11.1328 10.3594Z" fill="#6C98E0"/>
</svg>
