<svg width="20" height="19" viewBox="0 0 20 19" fill="none" xmlns="http://www.w3.org/2000/svg">
<path d="M18.624 0.722656L11.7217 -0.0195312L0.458984 11.2617L8.17773 18.9805L19.4404 7.71777L18.624 0.722656ZM6.02539 12.1709C5.96354 12.1709 5.90169 12.1585 5.83984 12.1338C5.77799 12.109 5.72233 12.0719 5.67285 12.0225C5.57389 11.9235 5.52441 11.806 5.52441 11.6699C5.52441 11.5339 5.57389 11.4163 5.67285 11.3174L10.5156 6.47461C10.6146 6.37565 10.7321 6.32617 10.8682 6.32617C11.0042 6.32617 11.1217 6.37565 11.2207 6.47461C11.3197 6.57357 11.3691 6.69108 11.3691 6.82715C11.3691 6.96322 11.3197 7.08073 11.2207 7.17969L6.37793 12.0225C6.32845 12.0719 6.27279 12.109 6.21094 12.1338C6.14909 12.1585 6.08724 12.1709 6.02539 12.1709ZM13.2061 9.16504L8.36328 14.0078C8.3138 14.0573 8.25814 14.0944 8.19629 14.1191C8.13444 14.1439 8.07259 14.1562 8.01074 14.1562C7.94889 14.1562 7.88704 14.1439 7.8252 14.1191C7.76335 14.0944 7.70768 14.0573 7.6582 14.0078C7.55924 13.9089 7.50977 13.7913 7.50977 13.6553C7.50977 13.5192 7.55924 13.4017 7.6582 13.3027L12.501 8.45996C12.5999 8.361 12.7174 8.31152 12.8535 8.31152C12.9896 8.31152 13.1071 8.361 13.2061 8.45996C13.305 8.55892 13.3545 8.67643 13.3545 8.8125C13.3545 8.94857 13.305 9.06608 13.2061 9.16504ZM15.4326 5.58398C14.9749 5.58398 14.5853 5.42008 14.2637 5.09229C13.9421 4.76449 13.7812 4.37175 13.7812 3.91406C13.7812 3.46875 13.9421 3.08219 14.2637 2.75439C14.5853 2.4266 14.9749 2.2627 15.4326 2.2627C15.8903 2.2627 16.2799 2.4266 16.6016 2.75439C16.9232 3.08219 17.084 3.46875 17.084 3.91406C17.084 4.37175 16.9232 4.76449 16.6016 5.09229C16.2799 5.42008 15.8903 5.58398 15.4326 5.58398Z" fill="#969696"/>
</svg>
