<svg width="25" height="26" viewBox="0 0 25 26" fill="none" xmlns="http://www.w3.org/2000/svg">
<g clip-path="url(#clip0_10_504)">
<path d="M12.8623 15.6328C13.1592 15.6328 13.4131 15.5273 13.624 15.3164C13.835 15.1055 13.9404 14.8516 13.9404 14.5547C13.9404 14.2578 13.835 14.0039 13.624 13.793C13.4131 13.582 13.1592 13.4766 12.8623 13.4766L7.94043 9.86719L11.7842 14.625C11.7998 14.9062 11.9092 15.1445 12.1123 15.3398C12.3154 15.5352 12.5654 15.6328 12.8623 15.6328ZM12.4404 1.6875C10.7842 1.6875 9.22949 2 7.77637 2.625C6.30762 3.26562 5.03027 4.125 3.94434 5.20312C2.8584 6.28125 2.00293 7.54688 1.37793 9C0.75293 10.4531 0.44043 12.0078 0.44043 13.6641C0.44043 14.8984 0.620117 16.0781 0.979492 17.2031C1.33887 18.3281 1.83887 19.3672 2.47949 20.3203H3.95605L4.00293 20.3438L4.0498 20.3203H4.09668C4.09668 20.3047 4.09277 20.2969 4.08496 20.2969C4.07715 20.2969 4.07324 20.2891 4.07324 20.2734L6.15918 18.4688L5.15137 17.3203L3.20605 19.0078C2.75293 18.2266 2.39746 17.3828 2.13965 16.4766C1.88184 15.5703 1.75293 14.6328 1.75293 13.6641C1.75293 13.6172 1.75684 13.5703 1.76465 13.5234C1.77246 13.4766 1.77637 13.4297 1.77637 13.3828H4.14355V11.8594H1.91699C2.07324 10.9375 2.34277 10.0586 2.72559 9.22266C3.1084 8.38672 3.58887 7.61719 4.16699 6.91406L5.83105 8.57812L6.90918 7.52344L5.22168 5.8125C6.0498 5.04688 6.99121 4.42578 8.0459 3.94922C9.10059 3.47266 10.2217 3.17188 11.4092 3.04688V5.78906H12.9326V3.02344C13.6045 3.05469 14.2529 3.14844 14.8779 3.30469C15.5029 3.44531 16.1084 3.64062 16.6943 3.89062C17.2803 4.14062 17.8311 4.4375 18.3467 4.78125C18.8779 5.125 19.3623 5.51562 19.7998 5.95312L18.0654 7.6875L19.1436 8.76562L20.8311 7.07812C21.3779 7.76562 21.8311 8.51172 22.1904 9.31641C22.5498 10.1211 22.8076 10.9688 22.9639 11.8594H20.6436V13.3828H23.1045C23.1045 13.4297 23.1084 13.4766 23.1162 13.5234C23.124 13.5703 23.1279 13.6172 23.1279 13.6641C23.1279 14.6328 23.0029 15.5664 22.7529 16.4648C22.5029 17.3633 22.1436 18.2031 21.6748 18.9844L19.8701 17.1797L18.792 18.2578L20.8076 20.2734C20.8076 20.2734 20.8037 20.2773 20.7959 20.2852C20.7881 20.293 20.7842 20.3047 20.7842 20.3203H22.4248C23.0498 19.3672 23.542 18.3281 23.9014 17.2031C24.2607 16.0781 24.4404 14.8984 24.4404 13.6641C24.4404 12.0078 24.1279 10.4531 23.5029 9C22.8779 7.54688 22.0225 6.28125 20.9365 5.20312C19.8506 4.125 18.5732 3.26562 17.1045 2.625C15.6514 2 14.0967 1.6875 12.4404 1.6875ZM6.97949 23.7656H17.8076V20.9766H6.97949V23.7656Z" fill="#232628"/>
</g>
<defs>
<clipPath id="clip0_10_504">
<rect width="24" height="25" fill="white" transform="matrix(1 0 0 -1 0.44043 25.25)"/>
</clipPath>
</defs>
</svg>
