<svg width="46" height="45" viewBox="0 0 46 45" fill="none" xmlns="http://www.w3.org/2000/svg">
<rect width="45" height="45" transform="translate(0.5)" fill="#3B3D3F"/>
<path d="M31.0891 18.9375C31.0891 19.1328 31.0891 19.2891 31.0891 19.4844C31.0891 24.9141 26.9875 31.125 19.4484 31.125C17.1047 31.125 14.9563 30.4609 13.1594 29.2891C13.4719 29.3281 13.7844 29.3672 14.1359 29.3672C16.05 29.3672 17.8078 28.7031 19.2141 27.6094C17.4172 27.5703 15.8938 26.3984 15.3859 24.7578C15.6594 24.7969 15.8938 24.8359 16.1672 24.8359C16.5188 24.8359 16.9094 24.7578 17.2219 24.6797C15.3469 24.2891 13.9406 22.6484 13.9406 20.6562V20.6172C14.4875 20.9297 15.1516 21.0859 15.8156 21.125C14.6828 20.3828 13.9797 19.1328 13.9797 17.7266C13.9797 16.9453 14.175 16.2422 14.5266 15.6562C16.5578 18.1172 19.6047 19.7578 23.0031 19.9531C22.925 19.6406 22.8859 19.3281 22.8859 19.0156C22.8859 16.75 24.7219 14.9141 26.9875 14.9141C28.1594 14.9141 29.2141 15.3828 29.9953 16.2031C30.8938 16.0078 31.7922 15.6562 32.5734 15.1875C32.2609 16.1641 31.6359 16.9453 30.7766 17.4531C31.5969 17.375 32.4172 17.1406 33.1203 16.8281C32.5734 17.6484 31.8703 18.3516 31.0891 18.9375Z" fill="white"/>
</svg>
