<svg width="36" height="35" viewBox="0 0 36 35" fill="none" xmlns="http://www.w3.org/2000/svg">
<rect x="0.5" width="35" height="35" rx="17.5" fill="#2F3234"/>
<path d="M24.732 14.9062C24.732 15.043 24.732 15.1523 24.732 15.2891C24.732 19.0898 21.8609 23.4375 16.5836 23.4375C14.943 23.4375 13.4391 22.9727 12.1813 22.1523C12.4 22.1797 12.6188 22.207 12.8648 22.207C14.2047 22.207 15.4352 21.7422 16.4195 20.9766C15.1617 20.9492 14.0953 20.1289 13.7398 18.9805C13.9313 19.0078 14.0953 19.0352 14.2867 19.0352C14.5328 19.0352 14.8063 18.9805 15.025 18.9258C13.7125 18.6523 12.7281 17.5039 12.7281 16.1094V16.082C13.1109 16.3008 13.5758 16.4102 14.0406 16.4375C13.2477 15.918 12.7555 15.043 12.7555 14.0586C12.7555 13.5117 12.8922 13.0195 13.1383 12.6094C14.5602 14.332 16.693 15.4805 19.0719 15.6172C19.0172 15.3984 18.9898 15.1797 18.9898 14.9609C18.9898 13.375 20.275 12.0898 21.8609 12.0898C22.6813 12.0898 23.4195 12.418 23.9664 12.9922C24.5953 12.8555 25.2242 12.6094 25.7711 12.2812C25.5523 12.9648 25.1148 13.5117 24.5133 13.8672C25.0875 13.8125 25.6617 13.6484 26.1539 13.4297C25.7711 14.0039 25.2789 14.4961 24.732 14.9062Z" fill="white"/>
</svg>
