<svg width="72" height="54" viewBox="0 0 72 54" fill="none" xmlns="http://www.w3.org/2000/svg">
<path d="M36.7373 18.3516H20.917C20.46 18.3516 20.0732 18.5098 19.7568 18.8262C19.4404 19.1426 19.2822 19.5117 19.2822 19.9336C19.2822 20.3906 19.4404 20.7686 19.7568 21.0674C20.0732 21.3662 20.46 21.5156 20.917 21.5156H36.7373C37.1592 21.5156 37.5283 21.3662 37.8447 21.0674C38.1611 20.7686 38.3193 20.3906 38.3193 19.9336C38.3193 19.5117 38.1611 19.1426 37.8447 18.8262C37.5283 18.5098 37.1592 18.3516 36.7373 18.3516ZM36.7373 26.0508H20.917C20.46 26.0508 20.0732 26.209 19.7568 26.5254C19.4404 26.8418 19.2822 27.2109 19.2822 27.6328C19.2822 28.0898 19.4404 28.4678 19.7568 28.7666C20.0732 29.0654 20.46 29.2148 20.917 29.2148H36.7373C37.1592 29.2148 37.5283 29.0654 37.8447 28.7666C38.1611 28.4678 38.3193 28.0898 38.3193 27.6328C38.3193 27.2109 38.1611 26.8418 37.8447 26.5254C37.5283 26.209 37.1592 26.0508 36.7373 26.0508ZM71.542 27.7383C71.542 25.0664 70.9619 22.5527 69.8018 20.1973C68.6768 17.8418 67.1035 15.7588 65.082 13.9482C63.0605 12.1377 60.6963 10.6523 57.9893 9.49219C55.2822 8.33203 52.3467 7.61133 49.1826 7.33008C47.917 6.20508 46.5107 5.20312 44.9639 4.32422C43.417 3.41016 41.7822 2.63672 40.0596 2.00391C38.3369 1.37109 36.5264 0.878906 34.6279 0.527344C32.7295 0.175781 30.7783 0 28.7744 0C24.8721 0 21.1982 0.615234 17.7529 1.8457C14.3428 3.11133 11.3633 4.80762 8.81445 6.93457C6.26562 9.06152 4.23535 11.5488 2.72363 14.3965C1.24707 17.2793 0.508789 20.3379 0.508789 23.5723C0.508789 25.2949 0.737305 27 1.19434 28.6875C1.65137 30.3398 2.30176 31.9395 3.14551 33.4863C3.98926 35.0332 5.02637 36.4746 6.25684 37.8105C7.4873 39.1816 8.89355 40.4297 10.4756 41.5547C10.0537 42.9961 9.53516 44.1299 8.91992 44.9561C8.30469 45.7822 7.99707 46.1953 7.99707 46.1953C7.46973 46.7227 7.10938 47.373 6.91602 48.1465C6.72266 48.9199 6.74902 49.6934 6.99512 50.4668C6.99512 50.5371 7.00391 50.5986 7.02148 50.6514C7.03906 50.7041 7.06543 50.7656 7.10059 50.8359C7.41699 51.6094 7.93555 52.2334 8.65625 52.708C9.37695 53.1826 10.1592 53.4199 11.0029 53.4199C12.5498 53.4199 14.0088 53.2266 15.3799 52.8398C16.7861 52.4531 18.1045 51.9609 19.335 51.3633C20.5654 50.7656 21.708 50.0801 22.7627 49.3066C23.8174 48.5332 24.7842 47.7598 25.6631 46.9863C26.1904 47.0215 26.709 47.0566 27.2188 47.0918C27.7285 47.127 28.2471 47.1445 28.7744 47.1445C30.0752 47.1445 31.3496 47.0654 32.5977 46.9072C33.8457 46.749 35.0674 46.5469 36.2627 46.3008C37.915 46.8984 39.6201 47.3643 41.3779 47.6982C43.1357 48.0322 44.9287 48.1992 46.7568 48.1992C47.2842 48.1992 47.8291 48.1816 48.3916 48.1465C48.9541 48.1113 49.5342 48.0586 50.1318 47.9883C51.6084 49.4297 53.4629 50.792 55.6953 52.0752C57.9277 53.3584 60.4326 54 63.21 54C63.7373 54 64.2119 53.8594 64.6338 53.5781C65.0557 53.2969 65.3721 52.9102 65.583 52.418C65.583 52.418 65.5918 52.4004 65.6094 52.3652C65.627 52.3301 65.6357 52.2949 65.6357 52.2598C65.7764 51.7676 65.7939 51.2842 65.6885 50.8096C65.583 50.335 65.3545 49.9395 65.0029 49.623C65.0029 49.623 64.625 49.1045 63.8691 48.0674C63.1133 47.0303 62.542 45.5977 62.1553 43.7695C63.6318 42.8203 64.9502 41.7305 66.1104 40.5C67.2705 39.3047 68.2549 38.0215 69.0635 36.6504C69.8721 35.2793 70.4873 33.8379 70.9092 32.3262C71.3311 30.8145 71.542 29.2852 71.542 27.7383ZM29.0381 42.2402C28.4053 42.2402 27.7373 42.2139 27.0342 42.1611C26.3311 42.1084 25.6279 42.0293 24.9248 41.9238C24.3975 41.8535 23.8877 41.9062 23.3955 42.082C22.9033 42.2578 22.4639 42.5391 22.0771 42.9258C21.1631 43.8398 19.8711 44.8506 18.2012 45.958C16.5312 47.0654 14.835 47.7598 13.1123 48.041C13.499 47.1973 14.1318 46.2656 15.0107 45.2461C15.8896 44.2266 16.3994 43.1016 16.54 41.8711C16.6455 41.2031 16.5488 40.5615 16.25 39.9463C15.9512 39.3311 15.5029 38.8301 14.9053 38.4434C13.4287 37.5645 12.1104 36.5625 10.9502 35.4375C9.75488 34.3125 8.76172 33.1084 7.9707 31.8252C7.17969 30.542 6.57324 29.1973 6.15137 27.791C5.72949 26.3848 5.51855 24.9434 5.51855 23.4668C5.51855 20.8652 6.13379 18.4219 7.36426 16.1367C8.59473 13.8516 10.2734 11.8652 12.4004 10.1777C14.5273 8.49023 17.0146 7.1543 19.8623 6.16992C22.7451 5.18555 25.8037 4.69336 29.0381 4.69336C32.2725 4.69336 35.3311 5.18555 38.2139 6.16992C41.0615 7.1543 43.5488 8.49023 45.6758 10.1777C47.8027 11.8652 49.4814 13.8516 50.7119 16.1367C51.9424 18.4219 52.5576 20.8652 52.5576 23.4668C52.5576 26.0332 51.9424 28.459 50.7119 30.7441C49.4814 33.0293 47.8027 35.0244 45.6758 36.7295C43.5488 38.4346 41.0615 39.7793 38.2139 40.7637C35.3311 41.748 32.2725 42.2402 29.0381 42.2402ZM59.5713 41.6074C59.3252 41.7832 59.1318 42.0117 58.9912 42.293C58.8506 42.5742 58.7979 42.873 58.833 43.1895C59.0791 44.9824 59.5186 46.5205 60.1514 47.8037C60.7842 49.0869 61.3467 50.0625 61.8389 50.7305C59.7646 50.4844 57.8662 49.79 56.1436 48.6475C54.4209 47.5049 52.9795 46.3535 51.8193 45.1934C51.6436 45.0176 51.4326 44.8945 51.1865 44.8242C50.9404 44.7539 50.6943 44.7363 50.4482 44.7715C49.8154 44.8418 49.1914 44.9033 48.5762 44.9561C47.9609 45.0088 47.3545 45.0352 46.7568 45.0352C45.8779 45.0352 45.0166 44.9912 44.1729 44.9033C43.3291 44.8154 42.4854 44.6836 41.6416 44.5078C43.9268 43.5234 46.001 42.3105 47.8643 40.8691C49.7627 39.4277 51.3887 37.8018 52.7422 35.9912C54.0957 34.1807 55.1416 32.2383 55.8799 30.1641C56.6182 28.0547 56.9873 25.8574 56.9873 23.5723C56.9873 21.2871 56.6094 19.0898 55.8535 16.9805C55.0977 14.8711 54.0342 12.9023 52.6631 11.0742C54.9482 11.6016 57.04 12.3926 58.9385 13.4473C60.8721 14.502 62.5332 15.7588 63.9219 17.2178C65.3105 18.6768 66.4092 20.3027 67.2178 22.0957C67.9912 23.8535 68.3779 25.7168 68.3779 27.6855C68.3779 29.0918 68.1846 30.4453 67.7979 31.7461C67.4111 33.0469 66.8398 34.2949 66.084 35.4902C65.3281 36.6855 64.4053 37.793 63.3154 38.8125C62.2256 39.8672 60.9775 40.7988 59.5713 41.6074Z" fill="#CC6108"/>
</svg>
