<svg width="53" height="54" viewBox="0 0 53 54" fill="none" xmlns="http://www.w3.org/2000/svg">
<path d="M26.5 0.896484C22.9141 0.896484 19.5215 1.58203 16.3223 2.95312C13.1582 4.32422 10.3984 6.1875 8.04297 8.54297C5.6875 10.8984 3.82422 13.6582 2.45312 16.8223C1.08203 20.0215 0.396484 23.4141 0.396484 27C0.396484 30.5859 1.08203 33.9785 2.45312 37.1777C3.82422 40.3418 5.6875 43.1016 8.04297 45.457C10.3984 47.8125 13.1582 49.6758 16.3223 51.0469C19.5215 52.418 22.9141 53.1035 26.5 53.1035C30.0859 53.1035 33.4785 52.418 36.6777 51.0469C39.8418 49.6758 42.6016 47.8125 44.957 45.457C47.3125 43.1016 49.1758 40.3418 50.5469 37.1777C51.918 33.9785 52.6035 30.5859 52.6035 27C52.6035 23.4141 51.918 20.0215 50.5469 16.8223C49.1758 13.6582 47.3125 10.8984 44.957 8.54297C42.6016 6.1875 39.8418 4.32422 36.6777 2.95312C33.4785 1.58203 30.0859 0.896484 26.5 0.896484ZM26.5 49.5703C23.4062 49.5703 20.4883 48.9727 17.7461 47.7773C15.0039 46.582 12.6133 44.9648 10.5742 42.9258C8.53516 40.8867 6.91797 38.4961 5.72266 35.7539C4.52734 33.0117 3.92969 30.0938 3.92969 27C3.92969 23.9062 4.52734 20.9883 5.72266 18.2461C6.91797 15.5039 8.53516 13.1133 10.5742 11.0742C12.6133 9.03516 15.0039 7.41797 17.7461 6.22266C20.4883 5.02734 23.4062 4.42969 26.5 4.42969C29.5938 4.42969 32.5117 5.02734 35.2539 6.22266C37.9961 7.41797 40.3867 9.03516 42.4258 11.0742C44.4648 13.1133 46.082 15.5039 47.2773 18.2461C48.4727 20.9883 49.0703 23.9062 49.0703 27C49.0703 30.0938 48.4727 33.0117 47.2773 35.7539C46.082 38.4961 44.4648 40.8867 42.4258 42.9258C40.3867 44.9648 37.9961 46.582 35.2539 47.7773C32.5117 48.9727 29.5938 49.5703 26.5 49.5703ZM26.5 11.9707C24.4258 11.9707 22.4746 12.375 20.6465 13.1836C18.8535 13.957 17.2715 15.0293 15.9004 16.4004C14.5293 17.7715 13.457 19.3535 12.6836 21.1465C11.875 22.9746 11.4707 24.9258 11.4707 27C11.4707 29.0742 11.875 31.0254 12.6836 32.8535C13.457 34.6465 14.5293 36.2285 15.9004 37.5996C17.2715 38.9707 18.8535 40.043 20.6465 40.8164C22.4746 41.5898 24.4258 41.9766 26.5 41.9766C27.2031 41.9766 27.792 41.7393 28.2666 41.2646C28.7412 40.79 28.9785 40.2012 28.9785 39.498C28.9785 38.8301 28.7412 38.25 28.2666 37.7578C27.792 37.2656 27.2031 37.0195 26.5 37.0195C23.7227 37.0195 21.3584 36.0352 19.4072 34.0664C17.4561 32.0977 16.4805 29.7422 16.4805 27C16.4805 24.2227 17.4561 21.8584 19.4072 19.9072C21.3584 17.9561 23.7227 16.9805 26.5 16.9805C29.2422 16.9805 31.5977 17.9561 33.5664 19.9072C35.5352 21.8584 36.5195 24.2227 36.5195 27C36.5195 27.7031 36.7656 28.292 37.2578 28.7666C37.75 29.2412 38.3301 29.4785 38.998 29.4785C39.7012 29.4785 40.29 29.2412 40.7646 28.7666C41.2393 28.292 41.4766 27.7031 41.4766 27C41.4766 24.9258 41.0898 22.9746 40.3164 21.1465C39.543 19.3535 38.4707 17.7715 37.0996 16.4004C35.7285 15.0293 34.1465 13.957 32.3535 13.1836C30.5254 12.375 28.5742 11.9707 26.5 11.9707ZM30.1387 27.1582C30.1387 27.123 30.1387 27.0967 30.1387 27.0791C30.1387 27.0615 30.1387 27.0352 30.1387 27C30.1387 25.9805 29.7871 25.1191 29.084 24.416C28.3809 23.7129 27.5195 23.3613 26.5 23.3613C25.4805 23.3613 24.6191 23.7129 23.916 24.416C23.2129 25.1191 22.8613 25.9805 22.8613 27C22.8613 28.0195 23.2129 28.8809 23.916 29.584C24.6191 30.2871 25.4805 30.6387 26.5 30.6387C26.5352 30.6387 26.5703 30.6387 26.6055 30.6387C26.6406 30.6387 26.6758 30.6387 26.7109 30.6387L37.1523 39.3926C37.3984 39.6035 37.6885 39.709 38.0225 39.709C38.3564 39.709 38.6465 39.6035 38.8926 39.3926C39.1738 39.1465 39.3232 38.8477 39.3408 38.4961C39.3584 38.1445 39.2441 37.8281 38.998 37.5469L30.1387 27.1582Z" fill="#CC6108"/>
</svg>
