<svg width="41" height="54" viewBox="0 0 41 54" fill="none" xmlns="http://www.w3.org/2000/svg">
<path d="M29.2988 39.3926H12.002C11.7207 39.3926 11.4834 39.4893 11.29 39.6826C11.0967 39.876 11 40.1309 11 40.4473C11 40.7285 11.0967 40.9746 11.29 41.1855C11.4834 41.3965 11.7207 41.502 12.002 41.502H29.2988C29.5801 41.502 29.8174 41.3965 30.0107 41.1855C30.2041 40.9746 30.3008 40.7285 30.3008 40.4473C30.3008 40.1309 30.2041 39.876 30.0107 39.6826C29.8174 39.4893 29.5801 39.3926 29.2988 39.3926ZM29.2988 31.0605H12.002C11.7207 31.0605 11.4834 31.166 11.29 31.377C11.0967 31.5879 11 31.834 11 32.1152C11 32.4316 11.0967 32.6953 11.29 32.9062C11.4834 33.1172 11.7207 33.2227 12.002 33.2227H29.2988C29.5801 33.2227 29.8174 33.1172 30.0107 32.9062C30.2041 32.6953 30.3008 32.4316 30.3008 32.1152C30.3008 31.834 30.2041 31.5879 30.0107 31.377C29.8174 31.166 29.5801 31.0605 29.2988 31.0605ZM29.2988 14.502H12.002C11.7207 14.502 11.4834 14.6074 11.29 14.8184C11.0967 15.0293 11 15.2754 11 15.5566C11 15.8379 11.0967 16.084 11.29 16.2949C11.4834 16.5059 11.7207 16.6113 12.002 16.6113H29.2988C29.5801 16.6113 29.8174 16.5059 30.0107 16.2949C30.2041 16.084 30.3008 15.8379 30.3008 15.5566C30.3008 15.2754 30.2041 15.0293 30.0107 14.8184C29.8174 14.6074 29.5801 14.502 29.2988 14.502ZM38.6855 2.47852H32.832C32.6914 2.47852 32.5508 2.49609 32.4102 2.53125C32.2695 2.56641 32.1289 2.61914 31.9883 2.68945C31.6719 2.12695 31.25 1.66992 30.7227 1.31836C30.1953 0.966797 29.6152 0.791016 28.9824 0.791016H12.3184C11.6855 0.791016 11.1055 0.966797 10.5781 1.31836C10.0508 1.66992 9.62891 2.12695 9.3125 2.68945C9.20703 2.61914 9.08398 2.56641 8.94336 2.53125C8.80273 2.49609 8.64453 2.47852 8.46875 2.47852H2.61523C2.08789 2.47852 1.62207 2.68066 1.21777 3.08496C0.813477 3.48926 0.611328 3.99023 0.611328 4.58789V51.0996C0.611328 51.6621 0.813477 52.1543 1.21777 52.5762C1.62207 52.998 2.08789 53.209 2.61523 53.209H38.6855C39.248 53.209 39.7227 52.998 40.1094 52.5762C40.4961 52.1543 40.6895 51.6621 40.6895 51.0996V4.58789C40.6895 3.99023 40.4961 3.48926 40.1094 3.08496C39.7227 2.68066 39.248 2.47852 38.6855 2.47852ZM12.3184 2.90039H28.9824C29.3691 2.90039 29.7031 3.06738 29.9844 3.40137C30.2656 3.73535 30.4062 4.13086 30.4062 4.58789C30.4062 5.04492 30.2656 5.44043 29.9844 5.77441C29.7031 6.1084 29.3691 6.27539 28.9824 6.27539H12.3184C11.9316 6.27539 11.5977 6.1084 11.3164 5.77441C11.0352 5.44043 10.8945 5.04492 10.8945 4.58789C10.8945 4.13086 11.0352 3.73535 11.3164 3.40137C11.5977 3.06738 11.9316 2.90039 12.3184 2.90039ZM36.6289 48.9902H4.67188V6.69727H8.46875C8.64453 6.69727 8.80273 6.67969 8.94336 6.64453C9.08398 6.60938 9.20703 6.55664 9.3125 6.48633C9.62891 7.04883 10.0508 7.50586 10.5781 7.85742C11.1055 8.20898 11.6855 8.38477 12.3184 8.38477H28.9824C29.6152 8.38477 30.1953 8.20898 30.7227 7.85742C31.25 7.50586 31.6719 7.04883 31.9883 6.48633C32.1289 6.55664 32.2695 6.60938 32.4102 6.64453C32.5508 6.67969 32.6914 6.69727 32.832 6.69727H36.6289V48.9902ZM29.2988 22.7812H12.002C11.7207 22.7812 11.4834 22.8867 11.29 23.0977C11.0967 23.3086 11 23.5547 11 23.8359C11 24.1172 11.0967 24.3633 11.29 24.5742C11.4834 24.7852 11.7207 24.8906 12.002 24.8906H29.2988C29.5801 24.8906 29.8174 24.7852 30.0107 24.5742C30.2041 24.3633 30.3008 24.1172 30.3008 23.8359C30.3008 23.5547 30.2041 23.3086 30.0107 23.0977C29.8174 22.8867 29.5801 22.7812 29.2988 22.7812Z" fill="#CC6108"/>
</svg>
