<svg width="15" height="13" viewBox="0 0 15 13" fill="none" xmlns="http://www.w3.org/2000/svg">
<path d="M7.41992 0.139648C6.46354 0.139648 5.56641 0.287761 4.72852 0.583984C3.89062 0.880208 3.15853 1.28434 2.53223 1.79639C1.90592 2.30843 1.41081 2.90723 1.04688 3.59277C0.682943 4.28678 0.500977 5.02311 0.500977 5.80176C0.500977 6.22494 0.55599 6.63965 0.666016 7.0459C0.784505 7.45215 0.949544 7.84147 1.16113 8.21387C1.37272 8.58626 1.63509 8.9375 1.94824 9.26758C2.26139 9.59766 2.61263 9.89811 3.00195 10.1689C2.90039 10.5667 2.76286 10.8778 2.58936 11.1021C2.41585 11.3263 2.3291 11.4385 2.3291 11.4385C2.21061 11.557 2.13232 11.6987 2.09424 11.8638C2.05615 12.0288 2.05827 12.196 2.10059 12.3652C2.10905 12.3822 2.1154 12.397 2.11963 12.4097C2.12386 12.4224 2.13021 12.4372 2.13867 12.4541C2.20638 12.6149 2.31852 12.7461 2.4751 12.8477C2.63167 12.9492 2.80306 13 2.98926 13C3.37012 13 3.72982 12.9535 4.06836 12.8604C4.41536 12.7673 4.74121 12.6466 5.0459 12.4985C5.35059 12.3504 5.63411 12.1833 5.89648 11.9971C6.15039 11.8024 6.38314 11.612 6.59473 11.4258C6.73861 11.4342 6.87826 11.4427 7.01367 11.4512C7.14909 11.4596 7.28451 11.4639 7.41992 11.4639C8.3763 11.4639 9.27344 11.3158 10.1113 11.0195C10.9492 10.7233 11.6813 10.3171 12.3076 9.80078C12.9339 9.28451 13.429 8.68359 13.793 7.99805C14.1569 7.3125 14.3389 6.5804 14.3389 5.80176C14.3389 5.02311 14.1569 4.28678 13.793 3.59277C13.429 2.90723 12.9339 2.30843 12.3076 1.79639C11.6813 1.28434 10.9492 0.880208 10.1113 0.583984C9.27344 0.287761 8.3763 0.139648 7.41992 0.139648ZM7.41992 10.1562C7.26758 10.1562 7.111 10.1499 6.9502 10.1372C6.78939 10.1245 6.62435 10.1097 6.45508 10.0928C6.34505 10.0758 6.24137 10.0843 6.14404 10.1182C6.04671 10.152 5.96419 10.2028 5.89648 10.2705C5.65104 10.516 5.35482 10.7614 5.00781 11.0068C4.66081 11.2523 4.27572 11.4385 3.85254 11.5654C3.97103 11.3623 4.08105 11.1253 4.18262 10.8545C4.28418 10.5837 4.35612 10.279 4.39844 9.94043C4.41536 9.80501 4.39632 9.68018 4.34131 9.56592C4.2863 9.45166 4.19954 9.36068 4.08105 9.29297C3.72559 9.08138 3.4082 8.8444 3.12891 8.58203C2.84961 8.32812 2.61263 8.05094 2.41797 7.75049C2.22331 7.45003 2.0752 7.13477 1.97363 6.80469C1.88053 6.48307 1.83398 6.14876 1.83398 5.80176C1.83398 5.20085 1.97786 4.63379 2.26562 4.10059C2.56185 3.57585 2.96387 3.1167 3.47168 2.72314C3.97949 2.32959 4.57194 2.01855 5.24902 1.79004C5.92611 1.56152 6.64974 1.44727 7.41992 1.44727C8.1901 1.44727 8.91374 1.56152 9.59082 1.79004C10.2764 2.01855 10.8709 2.32959 11.3745 2.72314C11.8781 3.1167 12.278 3.57585 12.5742 4.10059C12.862 4.63379 13.0059 5.20085 13.0059 5.80176C13.0059 6.40267 12.862 6.96549 12.5742 7.49023C12.278 8.02344 11.8781 8.48682 11.3745 8.88037C10.8709 9.27393 10.2764 9.58496 9.59082 9.81348C8.91374 10.042 8.1901 10.1562 7.41992 10.1562ZM10.3525 6.4873H4.70312C4.61849 6.4873 4.54232 6.51904 4.47461 6.58252C4.4069 6.646 4.37305 6.72428 4.37305 6.81738C4.37305 6.91048 4.4069 6.98877 4.47461 7.05225C4.54232 7.11572 4.61849 7.14746 4.70312 7.14746H10.3525C10.4456 7.14746 10.5239 7.11572 10.5874 7.05225C10.6509 6.98877 10.6826 6.91048 10.6826 6.81738C10.6826 6.72428 10.6509 6.646 10.5874 6.58252C10.5239 6.51904 10.4456 6.4873 10.3525 6.4873ZM10.3525 4.57031H4.70312C4.61849 4.57031 4.54232 4.60205 4.47461 4.66553C4.4069 4.729 4.37305 4.80729 4.37305 4.90039C4.37305 4.99349 4.4069 5.07178 4.47461 5.13525C4.54232 5.19873 4.61849 5.23047 4.70312 5.23047H10.3525C10.4456 5.23047 10.5239 5.19873 10.5874 5.13525C10.6509 5.07178 10.6826 4.99349 10.6826 4.90039C10.6826 4.80729 10.6509 4.729 10.5874 4.66553C10.5239 4.60205 10.4456 4.57031 10.3525 4.57031Z" fill="#6C98E0"/>
</svg>
