<svg width="55" height="54" viewBox="0 0 55 54" fill="none" xmlns="http://www.w3.org/2000/svg">
<path d="M14.4219 9.91406C13.3672 9.91406 12.4707 10.292 11.7324 11.0479C10.9941 11.8037 10.625 12.6914 10.625 13.7109C10.625 14.7656 10.9941 15.6709 11.7324 16.4268C12.4707 17.1826 13.3672 17.5605 14.4219 17.5605C15.4766 17.5605 16.373 17.1826 17.1113 16.4268C17.8496 15.6709 18.2188 14.7656 18.2188 13.7109C18.2188 12.6914 17.8496 11.8037 17.1113 11.0479C16.373 10.292 15.4766 9.91406 14.4219 9.91406ZM14.4219 15.2402C14 15.2402 13.6396 15.0908 13.3408 14.792C13.042 14.4932 12.8926 14.1328 12.8926 13.7109C12.8926 13.3242 13.042 12.9814 13.3408 12.6826C13.6396 12.3838 14 12.2344 14.4219 12.2344C14.8438 12.2344 15.2041 12.3838 15.5029 12.6826C15.8018 12.9814 15.9512 13.3242 15.9512 13.7109C15.9512 14.1328 15.8018 14.4932 15.5029 14.792C15.2041 15.0908 14.8438 15.2402 14.4219 15.2402ZM35.3047 32.4316C35.4102 32.5371 35.5332 32.6162 35.6738 32.6689C35.8145 32.7217 35.9551 32.748 36.0957 32.748C36.2715 32.748 36.4297 32.7217 36.5703 32.6689C36.7109 32.6162 36.834 32.5371 36.9395 32.4316C37.1504 32.1855 37.2559 31.9043 37.2559 31.5879C37.2559 31.2715 37.1504 31.0078 36.9395 30.7969L25.7598 19.6172C25.5488 19.4062 25.2852 19.3008 24.9688 19.3008C24.6523 19.3008 24.3711 19.4062 24.125 19.6172C23.9141 19.8633 23.8086 20.1445 23.8086 20.4609C23.8086 20.7773 23.9141 21.041 24.125 21.252L35.3047 32.4316ZM53.8145 29.0566L25.4434 0.685547C25.1973 0.439453 24.916 0.254883 24.5996 0.131836C24.2832 0.00878906 23.9492 -0.0351562 23.5977 0L4.77148 2.00391C4.24414 2.07422 3.78711 2.29395 3.40039 2.66309C3.01367 3.03223 2.80273 3.48047 2.76758 4.00781L0.5 23.0449C0.464844 23.3965 0.508789 23.7393 0.631836 24.0732C0.754883 24.4072 0.939453 24.6973 1.18555 24.9434L29.5566 53.3145C29.7676 53.5605 30.0137 53.7363 30.2949 53.8418C30.5762 53.9473 30.8574 54 31.1387 54C31.4551 54 31.7539 53.9473 32.0352 53.8418C32.3164 53.7363 32.5625 53.5605 32.7734 53.3145L53.8145 32.2734C54.0254 32.0625 54.1924 31.8164 54.3154 31.5352C54.4385 31.2539 54.5 30.9551 54.5 30.6387C54.5 30.3574 54.4385 30.0762 54.3154 29.7949C54.1924 29.5137 54.0254 29.2676 53.8145 29.0566ZM31.1387 48.4629L5.19336 22.5176L7.0918 6.38086L23.0176 4.64062L48.9629 30.6387L31.1387 48.4629ZM21.1719 24.2051C20.9609 23.9941 20.6973 23.8887 20.3809 23.8887C20.0645 23.8887 19.8008 23.9941 19.5898 24.2051C19.3438 24.416 19.2207 24.6797 19.2207 24.9961C19.2207 25.3125 19.3438 25.5938 19.5898 25.8398L30.7168 36.9668C30.8574 37.1074 30.998 37.2041 31.1387 37.2568C31.2793 37.3096 31.4199 37.3359 31.5605 37.3359C31.7012 37.3359 31.8418 37.3096 31.9824 37.2568C32.123 37.2041 32.2461 37.1074 32.3516 36.9668C32.5625 36.7559 32.668 36.4922 32.668 36.1758C32.668 35.8594 32.5625 35.5957 32.3516 35.3848L21.1719 24.2051Z" fill="#CC6108"/>
</svg>
