<svg width="46" height="45" viewBox="0 0 46 45" fill="none" xmlns="http://www.w3.org/2000/svg">
<rect width="45" height="45" transform="translate(0.5)" fill="#3B3D3F"/>
<path d="M33.3625 17.8828C33.8313 19.5234 33.8313 23.0391 33.8313 23.0391C33.8313 23.0391 33.8313 26.5156 33.3625 28.1953C33.1281 29.1328 32.3859 29.8359 31.4875 30.0703C29.8078 30.5 23.1672 30.5 23.1672 30.5C23.1672 30.5 16.4875 30.5 14.8078 30.0703C13.9094 29.8359 13.1672 29.1328 12.9328 28.1953C12.4641 26.5156 12.4641 23.0391 12.4641 23.0391C12.4641 23.0391 12.4641 19.5234 12.9328 17.8828C13.1672 16.9453 13.9094 16.2031 14.8078 15.9688C16.4875 15.5 23.1672 15.5 23.1672 15.5C23.1672 15.5 29.8078 15.5 31.4875 15.9688C32.3859 16.2031 33.1281 16.9453 33.3625 17.8828ZM20.9797 26.2031L26.5266 23.0391L20.9797 19.875V26.2031Z" fill="white"/>
</svg>
